<?xml version="1.0" encoding="UTF-8"?>
<svg id="Layer_1" xmlns="http://www.w3.org/2000/svg" xmlns:xlink="http://www.w3.org/1999/xlink" version="1.1" viewBox="0 0 283.46 283.46">
  <!-- Generator: Adobe Illustrator 30.3.0, SVG Export Plug-In . SVG Version: 2.1.3 Build 182)  -->
  <defs>
    <style>
      .st0 {
        fill: #be1622;
      }

      .st1 {
        fill: url(#radial-gradient);
      }

      .st2 {
        fill: #1d1d1b;
      }

      .st3 {
        fill: #fff;
      }

      .st4 {
        fill: none;
      }

      .st4, .st5, .st6, .st7, .st8, .st9, .st10, .st11, .st12 {
        stroke-miterlimit: 10;
      }

      .st4, .st6 {
        stroke: #1d1d1b;
        stroke-width: .96px;
      }

      .st5 {
        fill: #008d36;
      }

      .st5, .st7, .st8, .st9, .st10, .st11, .st12 {
        stroke: #fff;
        stroke-width: .72px;
      }

      .st6 {
        fill: #f9b233;
      }

      .st7 {
        fill: url(#radial-gradient1);
      }

      .st8 {
        fill: url(#radial-gradient3);
      }

      .st9 {
        fill: url(#radial-gradient6);
      }

      .st10 {
        fill: url(#radial-gradient5);
      }

      .st11 {
        fill: url(#radial-gradient4);
      }

      .st12 {
        fill: url(#radial-gradient2);
      }
    </style>
    <radialGradient id="radial-gradient" cx="69.92" cy="500.35" fx="69.92" fy="500.35" r="12.25" gradientTransform="translate(0 -383.35)" gradientUnits="userSpaceOnUse">
      <stop offset=".45" stop-color="#e30613"/>
      <stop offset=".88" stop-color="#be1622"/>
    </radialGradient>
    <radialGradient id="radial-gradient1" cx="101.52" cy="509" fx="101.52" fy="509" r="9.31" gradientTransform="translate(0 -383.35)" gradientUnits="userSpaceOnUse">
      <stop offset=".23" stop-color="#ffe000"/>
      <stop offset=".88" stop-color="#fab400"/>
    </radialGradient>
    <radialGradient id="radial-gradient2" cx="98.77" cy="533.56" fx="98.77" fy="533.56" r="8.96" xlink:href="#radial-gradient1"/>
    <radialGradient id="radial-gradient3" cx="79.59" cy="547.5" fx="79.59" fy="547.5" r="9.15" xlink:href="#radial-gradient1"/>
    <radialGradient id="radial-gradient4" cx="59.31" cy="545.14" fx="59.31" fy="545.14" r="9.03" xlink:href="#radial-gradient1"/>
    <radialGradient id="radial-gradient5" cx="41.08" cy="532.48" fx="41.08" fy="532.48" r="8.69" xlink:href="#radial-gradient1"/>
    <radialGradient id="radial-gradient6" cx="37.51" cy="507.59" fx="37.51" fy="507.59" r="9.55" xlink:href="#radial-gradient1"/>
  </defs>
  <g>
    <path class="st3" d="M63.51,126.28v.19c.19,1.06.68,1.93,1.35,2.6,1.06,1.06,2.41,1.64,4.24,1.64s3.18-.58,4.24-1.64c.58-.58,1.06-1.35,1.35-2.32l.1-.19.19.1c.48.1.87.19,1.35.19,1.35,0,2.6-.58,3.76-1.64.96-.87,1.54-2.03,1.54-3.28,0-1.35-.68-2.7-1.25-3.47l-.1-.19.19-.1c1.16-.96,2.89-2.89,1.83-5.88-.77-2.22-2.8-3.67-5.5-3.86h-.19v-.19c-.19-1.25-.96-4.24-4.05-4.63-2.41-.29-3.67,1.06-4.34,2.22l-.1.19-.19-.1c-.77-.48-1.74-.68-2.7-.68-1.74-.1-2.99.48-3.86,1.45-1.74,1.74-2.12,4.92-1.16,8.1v.19l-.19.1c-.96.68-1.83,1.83-2.41,3.18-.87,2.12-.68,4.24.48,5.88,1.06,1.45,2.6,2.32,4.53,2.32h.68l.19-.19h0Z"/>
    <g>
      <path class="st0" d="M68.43,107.67s.68-3.67,3.96-3.28,3.18,4.92,3.18,4.92c0,0,4.53-.48,5.88,3.18,1.35,3.67-2.7,5.5-2.7,5.5,0,0,4.05,3.57.87,6.46s-5.59.39-5.59.39c0,0,.19,4.92-4.82,4.92s-4.73-4.82-4.73-4.82c0,0-3.57,1.35-5.59-1.54s.29-7.52,2.6-8.1c-1.25-2.99-1.25-6.46.48-8.3s5.31-1.25,6.46.68h0Z"/>
      <path class="st4" d="M68.43,107.67s.68-3.67,3.96-3.28,3.18,4.92,3.18,4.92c0,0,4.53-.48,5.88,3.18,1.35,3.67-2.7,5.5-2.7,5.5,0,0,4.05,3.57.87,6.46s-5.59.39-5.59.39c0,0,.19,4.92-4.82,4.92s-4.73-4.82-4.73-4.82c0,0-3.57,1.35-5.59-1.54s.29-7.52,2.6-8.1c-1.25-2.99-1.25-6.46.48-8.3s5.31-1.25,6.46.68h0Z"/>
      <path class="st1" d="M68.43,107.67s.68-3.67,3.96-3.28,3.18,4.92,3.18,4.92c0,0,4.53-.48,5.88,3.18,1.35,3.67-2.7,5.5-2.7,5.5,0,0,4.05,3.57.87,6.46s-5.59.39-5.59.39c0,0,.19,4.92-4.82,4.92s-4.73-4.82-4.73-4.82c0,0-3.57,1.35-5.59-1.54s.29-7.52,2.6-8.1c-1.25-2.99-1.25-6.46.48-8.3s5.31-1.25,6.46.68h0Z"/>
    </g>
    <path class="st3" d="M103.16,152.23c-1.64,3.57-3.76,6.95-6.56,9.94-6.17,6.56-14.66,9.84-25.27,9.84h-1.25c-11.19-.29-20.16-3.96-26.62-11-.68-.77-1.35-1.54-2.03-2.41.48.58,1.06,1.16,1.54,1.74,6.75,6.85,15.82,10.32,26.91,10.32s20.35-3.47,27.2-10.42c2.41-2.41,4.44-5.11,6.08-8.01M30.71,124.35s-2.6,47.56,39.36,48.62h1.35c40.52,0,37.72-47.56,37.72-47.56,0,0,.48,44.28-39.16,44.28s-39.26-45.34-39.26-45.34h0Z"/>
    <path class="st7" d="M91.97,121.56s14.47,3.47,22.09,8.1c-10.32-2.32-22.09-5.11-25.08-4.82.96-1.06,2.99-3.28,2.99-3.28h0Z"/>
    <path class="st3" d="M55.79,130.72c4.24,8.39,14.37,11.19,22.38,6.56,2.51-1.45,4.63-3.67,6.17-6.37-.87,2.99-2.8,5.69-5.4,7.62-8.01,5.98-20.84,2.32-23.15-7.81h0Z"/>
    <path class="st3" d="M44.99,129.76c-.48,15.43,15.63,27.11,30.29,23.83,4.82-1.06,9.36-3.28,13.31-6.46-3.47,3.76-8.01,6.46-13.02,7.91-15.14,4.34-33.67-8.78-30.58-25.27h0Z"/>
    <path class="st12" d="M91.29,139.98s11.67,11.29,14.95,20.45c-3.18-4.82-9.94-13.6-14.95-15.14.29-2.41,0-5.31,0-5.31Z"/>
    <path class="st8" d="M76.34,151.65s-.48,13.6,6.46,25.08c-2.7-9.26-4.34-19.58-3.28-23.92-1.83-.68-3.18-1.16-3.18-1.16Z"/>
    <path class="st11" d="M57.92,149.15s-1.35,10.42.96,25.27c.77-12.15,1.16-19.87,2.32-24.12-1.93-.68-3.28-1.16-3.28-1.16h0Z"/>
    <path class="st5" d="M58.98,133.23s-1.83,2.51-3.18,8.59c2.22-4.73,3.09-5.59,4.44-7.43-.77-.68-1.25-1.16-1.25-1.16Z"/>
    <path class="st5" d="M68.43,137.47s-.87,2.99,0,9.16c.48-5.21,1.25-6.66,1.93-8.87-1.06-.39-1.93-.29-1.93-.29h0Z"/>
    <path class="st5" d="M75.95,135.25s1.45,2.32,5.79,5.5c-3.09-3.38-3.47-4.73-4.53-6.46-.77.29-1.25.96-1.25.96h0Z"/>
    <path class="st10" d="M49.33,144.51v-4.44s-9.65,7.81-16.4,18.23c4.73-4.34,11.77-11.87,16.4-13.79h0Z"/>
    <path class="st9" d="M47.3,119.92s-17.27,5.11-22.57,8.59c8.49-1.64,21.42-5.31,25.56-5.02-2.12-1.93-2.99-3.57-2.99-3.57Z"/>
    <path class="st2" d="M71.52,107.38c.1,2.12.48,4.15.19,6.27l-.96-.29c.48-1.93.58-4.05.77-5.98h0Z"/>
    <path class="st2" d="M78.85,114.42c-1.93.77-3.76,1.74-5.88,2.22v-.96c1.93-.1,3.96-.77,5.88-1.25h0Z"/>
    <path class="st2" d="M63.03,110.37c1.74,1.16,3.57,2.12,5.11,3.57l-.77.58c-1.25-1.54-2.89-2.89-4.34-4.15h0Z"/>
    <path class="st2" d="M61.39,121.94c1.45-1.54,2.6-3.18,4.34-4.53l.48.87c-1.74.96-3.28,2.41-4.82,3.67h0Z"/>
    <path class="st2" d="M68.04,127.25c-.1-2.12-.29-4.15,0-6.27l.87.29c-.48,1.83-.58,3.96-.87,5.98h0Z"/>
    <path class="st2" d="M77.21,123.2c-1.83-1.06-3.67-1.93-5.31-3.28l.77-.58c1.25,1.45,3.09,2.7,4.53,3.86h0Z"/>
    <path class="st6" d="M69.78,113.74s.39-1.25,1.45-.96.87,1.83.87,1.83c0,0,1.54,0,1.83,1.35s-1.16,1.74-1.16,1.74c0,0,1.16,1.35,0,2.22s-1.93-.1-1.93-.1c0,0-.19,1.64-1.83,1.45s-1.35-1.83-1.35-1.83c0,0-1.25.29-1.83-.77s.48-2.51,1.25-2.6c-.29-1.06-.19-2.22.48-2.8s1.93-.19,2.22.48h0Z"/>
    <circle class="st4" cx="69.88" cy="116.93" r="1.25"/>
  </g>
  <path class="st3" d="M144.74,131.34h5.19l1.06,3.28h3.26l-4.96-14.38h-3.92l-4.96,14.38h3.26l1.07-3.28ZM147.28,123.52h.11l1.77,5.44h-3.65l1.77-5.44ZM159.55,147.4c-.6,0-1.14.17-1.6.52-.46.34-.79.85-.99,1.52h-.11v-1.88h-2.9v10.78h2.99v-6.1c0-.44.1-.83.3-1.17s.47-.6.81-.79.74-.28,1.18-.28c.21,0,.43.02.68.05.25.03.44.07.58.11v-2.65c-.13-.03-.28-.06-.46-.08-.17-.02-.33-.03-.48-.03ZM214.31,119.25h-2.77l-1.49,3.19h2.11l2.14-3.19ZM178.29,144.79l-1.41-1.71h-2.55v.1l2.84,3.09h2.22l2.85-3.09v-.1h-2.55l-1.41,1.71ZM162.31,127.89v6.73h2.9v-6.58c0-.56.15-1.01.46-1.36.3-.34.73-.52,1.27-.52.48,0,.88.15,1.19.45.32.3.48.75.48,1.35v6.66h2.98v-7.25c0-1.17-.32-2.07-.94-2.71-.63-.64-1.45-.96-2.45-.96-.79,0-1.48.19-2.05.56s-.98.87-1.2,1.48h-.11c-.17-.63-.52-1.12-1.04-1.49-.52-.37-1.15-.55-1.89-.55s-1.36.18-1.88.55c-.52.37-.9.86-1.12,1.5h-.13v-1.9h-2.85v10.78h2.99v-6.47c0-.4.08-.75.23-1.04s.36-.53.63-.7c.26-.17.56-.25.9-.25.49,0,.89.16,1.19.47.3.31.45.73.45,1.26ZM187.67,131.7c0,.71.14,1.29.44,1.75s.72.81,1.26,1.02c.54.22,1.17.32,1.89.29.39-.01.72-.05.99-.12.27-.06.48-.12.63-.17l-.47-2.23c-.08.01-.18.03-.32.06-.14.03-.28.04-.42.04-.2,0-.38-.03-.53-.09-.15-.06-.27-.17-.35-.32-.08-.15-.13-.37-.13-.64v-5.22h2.03v-2.25h-2.03v-2.58h-2.99v2.58h-1.47v2.25h1.47v5.62ZM184.57,123.83h-2.99v10.78h2.99v-10.78ZM183.08,122.44c.44,0,.82-.15,1.14-.45.32-.3.47-.65.47-1.07s-.16-.77-.47-1.07c-.32-.29-.7-.44-1.14-.44s-.82.15-1.14.45c-.32.3-.48.65-.48,1.07s.16.77.47,1.07c.32.29.7.44,1.14.44ZM149.66,144.58c-.77-.42-1.7-.62-2.79-.62h-5.67v14.38h3.04v-4.66h2.56c1.1,0,2.05-.2,2.83-.61s1.37-.98,1.79-1.71c.41-.73.62-1.57.62-2.53s-.2-1.8-.61-2.53c-.41-.73-.99-1.31-1.76-1.72ZM148.61,150.09c-.19.36-.47.65-.86.85-.38.2-.86.31-1.45.31h-2.06v-4.79h2.05c.59,0,1.08.1,1.46.3.38.2.67.48.86.83.19.36.29.78.29,1.25s-.1.89-.29,1.25ZM214.21,124.56c-.43-.29-.92-.51-1.47-.65-.55-.14-1.12-.21-1.72-.21-.86,0-1.62.13-2.27.39-.65.26-1.18.63-1.6,1.11-.41.48-.69,1.05-.83,1.7l2.77.22c.1-.36.31-.65.63-.89s.75-.35,1.29-.35c.51,0,.9.12,1.18.37.28.24.42.59.42,1.03v.04c0,.23-.09.4-.26.52-.17.12-.45.21-.84.26-.38.06-.89.12-1.52.19-.53.05-1.04.14-1.53.27s-.92.31-1.29.56c-.38.25-.68.58-.9.98-.22.41-.33.91-.33,1.51,0,.71.16,1.3.47,1.78.31.48.74.83,1.27,1.07.54.24,1.15.36,1.84.36.53,0,1-.07,1.41-.21.41-.14.76-.34,1.05-.6.29-.25.52-.55.7-.89h.08v1.5h2.84v-7.27c0-.64-.12-1.19-.37-1.65s-.59-.84-1.01-1.13ZM212.63,130.76c0,.38-.1.72-.29,1.02-.19.3-.46.54-.79.71-.34.18-.73.26-1.17.26s-.84-.11-1.13-.32c-.3-.21-.45-.52-.45-.93,0-.28.07-.52.22-.71.15-.19.35-.34.61-.45.26-.11.57-.19.92-.25.16-.02.35-.05.55-.08s.4-.07.6-.11c.2-.04.38-.08.54-.13.16-.05.29-.1.38-.17v1.14ZM223.06,132.32c-.14.03-.28.04-.42.04-.2,0-.38-.03-.53-.09-.15-.06-.27-.17-.35-.32-.08-.15-.13-.37-.13-.64v-5.22h2.03v-2.25h-2.03v-2.58h-2.99v2.58h-1.47v2.25h1.47v5.62c0,.71.14,1.29.44,1.75s.72.81,1.26,1.02c.54.22,1.17.32,1.89.29.39-.01.72-.05.99-.12.27-.06.48-.12.63-.17l-.47-2.23c-.08.01-.18.03-.32.06ZM170.43,148.78c-.46-.45-1-.79-1.62-1.02-.62-.23-1.28-.34-1.99-.34-1.06,0-1.98.23-2.76.7s-1.39,1.12-1.82,1.96-.65,1.81-.65,2.92.22,2.12.65,2.95c.43.83,1.04,1.47,1.84,1.92s1.75.68,2.86.68c.89,0,1.67-.14,2.36-.41s1.24-.66,1.67-1.15c.43-.49.72-1.07.86-1.74l-2.77-.18c-.1.27-.25.5-.45.69-.2.19-.43.33-.71.42s-.58.14-.91.14c-.5,0-.93-.11-1.3-.32-.37-.21-.65-.51-.85-.9-.2-.39-.3-.85-.3-1.38h0s7.34,0,7.34,0v-.82c0-.92-.13-1.72-.39-2.4-.26-.69-.62-1.25-1.08-1.71ZM164.56,151.86c.02-.39.11-.74.29-1.06.2-.35.47-.63.82-.84s.75-.31,1.2-.31.82.09,1.15.28c.33.19.59.45.78.78s.28.71.28,1.14h-4.52ZM201.73,155.27h-.11l-2.24-7.71h-3.16l3.77,10.78h3.37l3.77-10.78h-3.17l-2.23,7.71ZM234,125.05c-.46-.45-1-.79-1.62-1.02s-1.28-.34-1.99-.34c-1.06,0-1.98.23-2.76.7-.78.47-1.39,1.12-1.82,1.96-.43.84-.65,1.81-.65,2.92s.22,2.12.65,2.95c.43.83,1.04,1.47,1.84,1.92s1.75.68,2.86.68c.89,0,1.67-.14,2.36-.41.68-.27,1.24-.66,1.67-1.15.43-.49.72-1.07.86-1.74l-2.77-.18c-.1.27-.25.5-.45.69-.2.19-.43.33-.71.42s-.58.14-.91.14c-.5,0-.93-.1-1.3-.32-.37-.21-.65-.51-.85-.9-.2-.39-.3-.85-.3-1.38h0s7.34,0,7.34,0v-.82c0-.92-.13-1.72-.39-2.4-.26-.69-.62-1.26-1.08-1.71ZM228.13,128.14c.02-.39.11-.74.29-1.06.2-.35.47-.63.82-.84.35-.21.75-.31,1.2-.31s.82.09,1.15.28.59.45.78.78.28.71.28,1.14h-4.52ZM243.5,123.71c-.17-.02-.33-.03-.48-.03-.6,0-1.14.17-1.6.52-.46.34-.79.85-.99,1.52h-.11v-1.88h-2.9v10.78h2.99v-6.1c0-.44.1-.83.3-1.17s.47-.6.81-.79.74-.28,1.18-.28c.21,0,.43.02.68.05s.44.07.58.11v-2.65c-.13-.03-.28-.06-.46-.08ZM199.55,134.83c.89,0,1.67-.14,2.36-.41.68-.27,1.24-.66,1.67-1.15.43-.49.72-1.07.86-1.74l-2.77-.18c-.1.27-.25.5-.45.69-.2.19-.43.33-.71.42s-.58.14-.91.14c-.5,0-.93-.1-1.3-.32-.37-.21-.65-.51-.85-.9-.2-.39-.3-.85-.3-1.38h0s7.34,0,7.34,0v-.82c0-.92-.13-1.72-.39-2.4-.26-.69-.62-1.26-1.08-1.71-.46-.45-1-.79-1.62-1.02s-1.28-.34-1.99-.34c-1.06,0-1.98.23-2.76.7-.78.47-1.39,1.12-1.82,1.96-.43.84-.65,1.81-.65,2.92s.22,2.12.65,2.95c.43.83,1.04,1.47,1.84,1.92s1.75.68,2.86.68ZM197.46,127.07c.2-.35.47-.63.82-.84.35-.21.75-.31,1.2-.31s.82.09,1.15.28.59.45.78.78.28.71.28,1.14h-4.52c.02-.39.11-.74.29-1.06ZM174.62,134.62h2.98v-8.54h2.15v-2.25h-2.15v-.72c0-.37.09-.65.26-.85.17-.2.48-.31.92-.31.18,0,.35.02.52.05.17.03.31.07.43.11l.53-2.25c-.19-.06-.47-.12-.85-.19-.38-.07-.8-.11-1.26-.11-.68,0-1.28.13-1.82.39-.53.26-.95.64-1.26,1.16-.31.52-.46,1.16-.46,1.94v.78h-1.52v2.25h1.52v8.54ZM179.94,152.08l-1.95-.39c-.5-.11-.85-.25-1.06-.43-.21-.18-.31-.39-.31-.65,0-.32.16-.58.48-.78s.71-.29,1.17-.29c.35,0,.64.06.9.17.25.12.45.27.61.46.15.19.25.4.3.63l2.74-.17c-.13-.99-.59-1.78-1.37-2.35-.78-.58-1.86-.86-3.22-.86-.92,0-1.73.14-2.41.41-.69.27-1.22.66-1.59,1.16-.38.5-.57,1.1-.57,1.79,0,.81.26,1.47.77,1.99s1.3.88,2.35,1.09l1.87.37c.47.09.81.23,1.04.4.22.17.34.4.34.67,0,.32-.17.59-.49.79-.32.2-.74.31-1.27.31s-.97-.11-1.31-.34c-.34-.23-.56-.56-.65-.99l-2.94.15c.15,1.03.64,1.84,1.49,2.44s1.98.9,3.41.9c.94,0,1.76-.15,2.48-.45s1.29-.71,1.7-1.25c.41-.53.62-1.15.62-1.86,0-.78-.26-1.4-.77-1.88-.51-.48-1.3-.82-2.34-1.04ZM192.65,148.11c-.79-.47-1.74-.7-2.83-.7s-2.03.23-2.83.7c-.79.46-1.41,1.12-1.84,1.95s-.65,1.81-.65,2.92.22,2.07.65,2.91c.43.83,1.04,1.49,1.84,1.95.79.47,1.73.7,2.83.7s2.03-.23,2.83-.7c.79-.46,1.41-1.12,1.83-1.95.43-.84.65-1.81.65-2.91s-.22-2.09-.65-2.92c-.43-.83-1.04-1.49-1.83-1.95ZM191.83,154.65c-.17.49-.42.88-.75,1.16-.33.28-.75.42-1.24.42s-.92-.14-1.26-.42c-.34-.28-.59-.67-.76-1.16-.17-.49-.26-1.05-.26-1.68s.09-1.19.26-1.68c.17-.49.43-.88.76-1.17.34-.29.76-.43,1.26-.43s.91.14,1.24.43.58.67.75,1.17c.17.49.26,1.05.26,1.68s-.08,1.19-.26,1.68Z"/>
</svg>