<?xml version="1.0" encoding="UTF-8"?>
<svg id="a" xmlns="http://www.w3.org/2000/svg" xmlns:xlink="http://www.w3.org/1999/xlink" version="1.1" viewBox="0 0 80 80">
  <!-- Generator: Adobe Illustrator 30.3.0, SVG Export Plug-In . SVG Version: 2.1.3 Build 182)  -->
  <defs>
    <style>
      .st0 {
        fill: none;
      }

      .st0, .st1 {
        stroke: #1d1d1b;
        stroke-miterlimit: 10;
      }

      .st2 {
        fill: #be1622;
      }

      .st3 {
        fill: url(#radial-gradient);
      }

      .st1 {
        fill: #f9b233;
      }

      .st4 {
        fill: #1d1d1b;
      }

      .st5 {
        fill: #fff;
      }
    </style>
    <radialGradient id="radial-gradient" cx="40.1" cy="389.3" fx="40.1" fy="389.3" r="33.1" gradientTransform="translate(0 -349.9)" gradientUnits="userSpaceOnUse">
      <stop offset=".5" stop-color="#e30613"/>
      <stop offset=".9" stop-color="#be1622"/>
    </radialGradient>
  </defs>
  <g>
    <path class="st4" d="M38.2,77.8c-5.2,0-9.4-1.6-12.5-4.7s-3.1-4.2-3.9-7h-1.3c-5.5,0-10.2-2.3-13.3-6.8-3.1-4.7-3.6-10.7-1.3-16.9,1.6-3.6,3.6-6.8,6.5-8.9-2.6-9.1-1.3-17.7,3.4-22.7,2.6-2.9,6.5-4.4,10.9-4.4s5.2.5,7.6,1.8c2.1-3.1,6-6.8,12.8-6,8.9,1,11.2,9.1,12,13,7.6.8,13.3,4.9,15.6,11.2,3.1,8.6-2.1,14.6-4.9,16.9,1.6,2.3,3.4,5.7,3.4,9.6s-1.6,7-4.4,9.6c-3.4,3.1-7.3,4.7-10.9,4.7s-2.3-.3-3.4-.5c-.8,2.3-2.1,4.4-3.6,6.3-3.4,3.1-7.6,4.7-12.5,4.7h0ZM23.1,64.5v.5c.5,2.9,1.8,5.2,3.6,7,2.9,2.9,6.5,4.4,11.5,4.4s8.6-1.6,11.5-4.4c1.6-1.6,2.9-3.6,3.6-6.3l.3-.5.5.3c1.3.3,2.3.5,3.6.5,3.6,0,7-1.6,10.2-4.4,2.6-2.3,4.2-5.5,4.2-8.9s-1.8-7.3-3.4-9.4l-.3-.5.5-.3c3.1-2.6,7.8-7.8,4.9-15.9-2.1-6-7.6-9.9-14.8-10.4h-.5v-.5c-.5-3.4-2.6-11.5-10.9-12.5-6.5-.8-9.9,2.9-11.7,6l-.3.5-.5-.3c-2.1-1.3-4.7-1.8-7.3-1.8-4.9-.3-8.3,1.3-10.7,3.9-4.7,4.7-5.7,13.3-3.1,21.9v.5l-.5.3c-2.6,1.8-4.9,4.9-6.5,8.6-2.3,5.7-1.8,11.5,1.3,15.9,2.9,3.9,7,6.3,12.2,6.3h1.8l.8-.5h0Z"/>
    <path class="st5" d="M22.8,64.5v.5c.5,2.9,1.8,5.2,3.6,7,2.9,2.9,6.5,4.4,11.5,4.4s8.6-1.6,11.5-4.4c1.6-1.6,2.9-3.6,3.6-6.3l.3-.5.5.3c1.3.3,2.3.5,3.6.5,3.6,0,7-1.6,10.2-4.4,2.6-2.3,4.2-5.5,4.2-8.9s-1.8-7.3-3.4-9.4l-.3-.5.5-.3c3.1-2.6,7.8-7.8,4.9-15.9-2.1-6-7.6-9.9-14.8-10.4h-.5v-.5c-.5-3.4-2.6-11.5-10.9-12.5-6.5-.8-9.9,2.9-11.7,6l-.3.5-.5-.3c-2.1-1.3-4.7-1.8-7.3-1.8-4.7-.3-8.1,1.3-10.4,3.9-4.7,4.7-5.7,13.3-3.1,21.9v.5l-.5.3c-2.6,1.8-4.9,4.9-6.5,8.6-2.3,5.7-1.8,11.5,1.3,15.9,2.9,3.9,7,6.3,12.2,6.3h1.8l.5-.5h0Z"/>
  </g>
  <g>
    <path class="st2" d="M36.1,14.3s1.8-9.9,10.7-8.9c8.9,1,8.6,13.3,8.6,13.3,0,0,12.2-1.3,15.9,8.6,3.6,9.9-7.3,14.8-7.3,14.8,0,0,10.9,9.6,2.3,17.5-8.6,7.8-15.1,1-15.1,1,0,0,.5,13.3-13,13.3s-12.8-13-12.8-13c0,0-9.6,3.6-15.1-4.2-5.5-7.8.8-20.3,7-21.9-3.4-8.1-3.4-17.5,1.3-22.4s14.3-3.4,17.5,1.8h0Z"/>
    <path class="st0" d="M36.1,14.3s1.8-9.9,10.7-8.9c8.9,1,8.6,13.3,8.6,13.3,0,0,12.2-1.3,15.9,8.6,3.6,9.9-7.3,14.8-7.3,14.8,0,0,10.9,9.6,2.3,17.5-8.6,7.8-15.1,1-15.1,1,0,0,.5,13.3-13,13.3s-12.8-13-12.8-13c0,0-9.6,3.6-15.1-4.2-5.5-7.8.8-20.3,7-21.9-3.4-8.1-3.4-17.5,1.3-22.4s14.3-3.4,17.5,1.8h0Z"/>
    <path class="st3" d="M36.1,14.3s1.8-9.9,10.7-8.9c8.9,1,8.6,13.3,8.6,13.3,0,0,12.2-1.3,15.9,8.6,3.6,9.9-7.3,14.8-7.3,14.8,0,0,10.9,9.6,2.3,17.5-8.6,7.8-15.1,1-15.1,1,0,0,.5,13.3-13,13.3s-12.8-13-12.8-13c0,0-9.6,3.6-15.1-4.2-5.5-7.8.8-20.3,7-21.9-3.4-8.1-3.4-17.5,1.3-22.4s14.3-3.4,17.5,1.8h0Z"/>
  </g>
  <path class="st4" d="M44.4,13.5c.3,5.7,1.3,11.2.5,16.9l-2.6-.8c1.3-5.2,1.6-10.9,2.1-16.1h0Z"/>
  <path class="st4" d="M64.2,32.5c-5.2,2.1-10.2,4.7-15.9,6v-2.6c5.2-.3,10.7-2.1,15.9-3.4h0Z"/>
  <path class="st4" d="M21.5,21.6c4.7,3.1,9.6,5.7,13.8,9.6l-2.1,1.6c-3.4-4.2-7.8-7.8-11.7-11.2h0Z"/>
  <path class="st4" d="M17.1,52.8c3.9-4.2,7-8.6,11.7-12.2l1.3,2.3c-4.7,2.6-8.9,6.5-13,9.9h0Z"/>
  <path class="st4" d="M35,67.1c-.3-5.7-.8-11.2,0-16.9l2.3.8c-1.3,4.9-1.6,10.7-2.3,16.1h0Z"/>
  <path class="st4" d="M59.8,56.2c-4.9-2.9-9.9-5.2-14.3-8.9l2.1-1.6c3.4,3.9,8.3,7.3,12.2,10.4h0Z"/>
  <path class="st1" d="M39.7,30.7s1-3.4,3.9-2.6,2.3,4.9,2.3,4.9c0,0,4.2,0,4.9,3.6s-3.1,4.7-3.1,4.7c0,0,3.1,3.6,0,6s-5.2-.3-5.2-.3c0,0-.5,4.4-4.9,3.9s-3.6-4.9-3.6-4.9c0,0-3.4.8-4.9-2.1s1.3-6.8,3.4-7c-.8-2.9-.5-6,1.3-7.6s5.2-.5,6,1.3h0Z"/>
  <circle class="st0" cx="40" cy="39.3" r="3.4"/>
</svg>