<?xml version="1.0" encoding="UTF-8"?>
<svg id="Layer_1" xmlns="http://www.w3.org/2000/svg" xmlns:xlink="http://www.w3.org/1999/xlink" version="1.1" viewBox="0 0 226.35 79.52">
  <!-- Generator: Adobe Illustrator 30.3.0, SVG Export Plug-In . SVG Version: 2.1.3 Build 182)  -->
  <defs>
    <style>
      .st0 {
        fill: #008d36;
      }

      .st0, .st1, .st2, .st3, .st4, .st5, .st6 {
        stroke-width: .72px;
      }

      .st0, .st1, .st2, .st3, .st4, .st5, .st6, .st7, .st8 {
        stroke: #1d1d1b;
        stroke-miterlimit: 10;
      }

      .st9 {
        fill: #be1622;
      }

      .st1 {
        fill: url(#radial-gradient5);
      }

      .st2 {
        fill: url(#radial-gradient4);
      }

      .st3 {
        fill: url(#radial-gradient2);
      }

      .st4 {
        fill: url(#radial-gradient3);
      }

      .st5 {
        fill: url(#radial-gradient6);
      }

      .st6 {
        fill: url(#radial-gradient1);
      }

      .st10 {
        fill: url(#radial-gradient);
      }

      .st11 {
        fill: #1d1d1b;
      }

      .st12 {
        fill: #fff;
      }

      .st7 {
        fill: none;
      }

      .st7, .st8 {
        stroke-width: .96px;
      }

      .st8 {
        fill: #f9b233;
      }

      .st13 {
        fill: #222221;
      }
    </style>
    <radialGradient id="radial-gradient" cx="48.33" cy="400.13" fx="48.33" fy="400.13" r="12.23" gradientTransform="translate(0 -383.35)" gradientUnits="userSpaceOnUse">
      <stop offset=".45" stop-color="#e30613"/>
      <stop offset=".88" stop-color="#be1622"/>
    </radialGradient>
    <radialGradient id="radial-gradient1" cx="79.86" cy="408.76" fx="79.86" fy="408.76" r="9.29" gradientTransform="translate(0 -383.35)" gradientUnits="userSpaceOnUse">
      <stop offset=".23" stop-color="#ffe000"/>
      <stop offset=".88" stop-color="#fab400"/>
    </radialGradient>
    <radialGradient id="radial-gradient2" cx="77.12" cy="433.27" fx="77.12" fy="433.27" r="8.94" xlink:href="#radial-gradient1"/>
    <radialGradient id="radial-gradient3" cx="57.98" cy="447.18" fx="57.98" fy="447.18" r="9.13" xlink:href="#radial-gradient1"/>
    <radialGradient id="radial-gradient4" cx="37.75" cy="444.82" fx="37.75" fy="444.82" r="9.01" xlink:href="#radial-gradient1"/>
    <radialGradient id="radial-gradient5" cx="19.56" cy="432.19" fx="19.56" fy="432.19" r="8.67" xlink:href="#radial-gradient1"/>
    <radialGradient id="radial-gradient6" cx="16" cy="407.35" fx="16" fy="407.35" r="9.53" xlink:href="#radial-gradient1"/>
  </defs>
  <g>
    <g>
      <path class="st11" d="M47.62,30.95c-1.93,0-3.47-.58-4.62-1.73-.67-.67-1.16-1.54-1.44-2.6h-.48c-2.02,0-3.75-.87-4.91-2.5-1.16-1.73-1.35-3.95-.48-6.26.58-1.35,1.35-2.5,2.41-3.27-.96-3.37-.48-6.55,1.25-8.37.96-1.06,2.41-1.64,4.04-1.64.96,0,1.93.19,2.79.67.77-1.16,2.21-2.5,4.72-2.21,3.27.39,4.14,3.37,4.43,4.81,2.79.29,4.91,1.83,5.78,4.14,1.16,3.18-.77,5.39-1.83,6.26.58.87,1.25,2.12,1.25,3.56,0,1.35-.58,2.6-1.64,3.56-1.25,1.16-2.7,1.73-4.04,1.73-.39,0-.87-.1-1.25-.19-.29.87-.77,1.64-1.35,2.31-1.25,1.16-2.79,1.73-4.62,1.73h0ZM42.03,26.04v.19c.19,1.06.67,1.93,1.35,2.6,1.06,1.06,2.41,1.64,4.24,1.64s3.18-.58,4.24-1.64c.58-.58,1.06-1.35,1.35-2.31l.1-.19.19.1c.48.1.87.19,1.35.19,1.35,0,2.6-.58,3.75-1.64.96-.87,1.54-2.02,1.54-3.27,0-1.35-.67-2.7-1.25-3.47l-.1-.19.19-.1c1.16-.96,2.89-2.89,1.83-5.87-.77-2.21-2.79-3.66-5.49-3.85h-.19v-.19c-.19-1.25-.96-4.24-4.04-4.62-2.41-.29-3.66,1.06-4.33,2.21l-.1.19-.19-.1c-.77-.48-1.73-.67-2.7-.67-1.83-.1-3.08.48-3.95,1.44-1.73,1.73-2.12,4.91-1.16,8.09v.19l-.19.1c-.96.67-1.83,1.83-2.41,3.18-.87,2.12-.67,4.24.48,5.87,1.06,1.44,2.6,2.31,4.52,2.31h.67l.29-.19h0Z"/>
      <path class="st12" d="M41.94,26.04v.19c.19,1.06.67,1.93,1.35,2.6,1.06,1.06,2.41,1.64,4.24,1.64s3.18-.58,4.24-1.64c.58-.58,1.06-1.35,1.35-2.31l.1-.19.19.1c.48.1.87.19,1.35.19,1.35,0,2.6-.58,3.75-1.64.96-.87,1.54-2.02,1.54-3.27,0-1.35-.67-2.7-1.25-3.47l-.1-.19.19-.1c1.16-.96,2.89-2.89,1.83-5.87-.77-2.21-2.79-3.66-5.49-3.85h-.19v-.19c-.19-1.25-.96-4.24-4.04-4.62-2.41-.29-3.66,1.06-4.33,2.21l-.1.19-.19-.1c-.77-.48-1.73-.67-2.7-.67-1.73-.1-2.98.48-3.85,1.44-1.73,1.73-2.12,4.91-1.16,8.09v.19l-.19.1c-.96.67-1.83,1.83-2.41,3.18-.87,2.12-.67,4.24.48,5.87,1.06,1.44,2.6,2.31,4.52,2.31h.67l.19-.19h0Z"/>
    </g>
    <g>
      <path class="st9" d="M46.85,7.46s.67-3.66,3.95-3.27,3.18,4.91,3.18,4.91c0,0,4.52-.48,5.87,3.18,1.35,3.66-2.7,5.49-2.7,5.49,0,0,4.04,3.56.87,6.45-3.18,2.89-5.58.39-5.58.39,0,0,.19,4.91-4.81,4.91s-4.72-4.81-4.72-4.81c0,0-3.56,1.35-5.58-1.54s.29-7.51,2.6-8.09c-1.25-2.98-1.25-6.45.48-8.28s5.29-1.25,6.45.67h0Z"/>
      <path class="st7" d="M46.85,7.46s.67-3.66,3.95-3.27,3.18,4.91,3.18,4.91c0,0,4.52-.48,5.87,3.18,1.35,3.66-2.7,5.49-2.7,5.49,0,0,4.04,3.56.87,6.45-3.18,2.89-5.58.39-5.58.39,0,0,.19,4.91-4.81,4.91s-4.72-4.81-4.72-4.81c0,0-3.56,1.35-5.58-1.54s.29-7.51,2.6-8.09c-1.25-2.98-1.25-6.45.48-8.28s5.29-1.25,6.45.67h0Z"/>
      <path class="st10" d="M46.85,7.46s.67-3.66,3.95-3.27,3.18,4.91,3.18,4.91c0,0,4.52-.48,5.87,3.18,1.35,3.66-2.7,5.49-2.7,5.49,0,0,4.04,3.56.87,6.45-3.18,2.89-5.58.39-5.58.39,0,0,.19,4.91-4.81,4.91s-4.72-4.81-4.72-4.81c0,0-3.56,1.35-5.58-1.54s.29-7.51,2.6-8.09c-1.25-2.98-1.25-6.45.48-8.28s5.29-1.25,6.45.67h0Z"/>
    </g>
    <path class="st11" d="M81.5,51.93c-1.64,3.56-3.75,6.93-6.55,9.91-6.16,6.55-14.63,9.82-25.22,9.82h-1.25c-11.17-.29-20.12-3.95-26.57-10.97-.67-.77-1.35-1.54-2.02-2.41.48.58,1.06,1.16,1.54,1.73,6.74,6.83,15.79,10.3,26.86,10.3s20.31-3.47,27.14-10.4c2.41-2.41,4.43-5.1,6.06-7.99M9.21,24.12s-2.6,47.45,39.27,48.51h1.35c40.43,0,37.64-47.45,37.64-47.45,0,0,.48,44.18-39.08,44.18S9.21,24.12,9.21,24.12h0Z"/>
    <path class="st6" d="M70.33,21.33s14.44,3.47,22.04,8.09c-10.3-2.31-22.04-5.1-25.03-4.81.96-1.06,2.98-3.27,2.98-3.27h0Z"/>
    <path class="st11" d="M34.24,30.47c4.24,8.37,14.34,11.17,22.33,6.55,2.5-1.44,4.62-3.66,6.16-6.35-.87,2.98-2.79,5.68-5.39,7.6-7.99,5.97-20.79,2.31-23.1-7.8h0Z"/>
    <path class="st11" d="M23.46,29.51c-.48,15.4,15.59,27.05,30.22,23.78,4.81-1.06,9.34-3.27,13.28-6.45-3.47,3.75-7.99,6.45-12.99,7.89-15.11,4.33-33.59-8.76-30.51-25.22h0Z"/>
    <path class="st3" d="M69.66,39.71s11.65,11.26,14.92,20.41c-3.18-4.81-9.91-13.57-14.92-15.11.29-2.41,0-5.29,0-5.29Z"/>
    <path class="st4" d="M54.74,51.36s-.48,13.57,6.45,25.03c-2.7-9.24-4.33-19.54-3.27-23.87-1.83-.67-3.18-1.16-3.18-1.16Z"/>
    <path class="st2" d="M36.35,48.85s-1.35,10.4.96,25.22c.77-12.13,1.16-19.83,2.31-24.06-1.93-.67-3.27-1.16-3.27-1.16h0Z"/>
    <path class="st0" d="M37.41,32.97s-1.83,2.5-3.18,8.57c2.21-4.72,3.08-5.58,4.43-7.41-.77-.67-1.25-1.16-1.25-1.16Z"/>
    <path class="st0" d="M46.85,37.21s-.87,2.98,0,9.14c.48-5.2,1.25-6.64,1.93-8.86-1.06-.39-1.93-.29-1.93-.29h0Z"/>
    <path class="st0" d="M54.35,34.99s1.44,2.31,5.78,5.49c-3.08-3.37-3.47-4.72-4.52-6.45-.77.29-1.25.96-1.25.96h0Z"/>
    <path class="st1" d="M27.79,44.23v-4.43s-9.63,7.8-16.36,18.19c4.72-4.33,11.74-11.84,16.36-13.76h0Z"/>
    <path class="st5" d="M25.77,19.69S8.54,24.79,3.24,28.26c8.47-1.64,21.37-5.29,25.51-5.01-2.12-1.93-2.98-3.56-2.98-3.56Z"/>
    <path class="st11" d="M49.93,7.18c.1,2.12.48,4.14.19,6.26l-.96-.29c.48-1.93.58-4.04.77-5.97h0Z"/>
    <path class="st11" d="M57.24,14.2c-1.93.77-3.75,1.73-5.87,2.21v-.96c1.93-.1,3.95-.77,5.87-1.25h0Z"/>
    <path class="st11" d="M41.46,10.16c1.73,1.16,3.56,2.12,5.1,3.56l-.77.58c-1.25-1.54-2.89-2.89-4.33-4.14h0Z"/>
    <path class="st11" d="M39.82,21.71c1.44-1.54,2.6-3.18,4.33-4.52l.48.87c-1.73.96-3.27,2.41-4.81,3.66h0Z"/>
    <path class="st11" d="M46.46,27c-.1-2.12-.29-4.14,0-6.26l.87.29c-.48,1.83-.58,3.95-.87,5.97h0Z"/>
    <path class="st11" d="M55.61,22.96c-1.83-1.06-3.66-1.93-5.29-3.27l.77-.58c1.25,1.44,3.08,2.7,4.52,3.85h0Z"/>
    <path class="st8" d="M48.19,13.53s.39-1.25,1.44-.96.87,1.83.87,1.83c0,0,1.54,0,1.83,1.35s-1.16,1.73-1.16,1.73c0,0,1.16,1.35,0,2.21s-1.93-.1-1.93-.1c0,0-.19,1.64-1.83,1.44s-1.35-1.83-1.35-1.83c0,0-1.25.29-1.83-.77s.48-2.5,1.25-2.6c-.29-1.06-.19-2.21.48-2.79s1.93-.19,2.21.48h0Z"/>
    <circle class="st7" cx="48.29" cy="16.71" r="1.25"/>
  </g>
  <path class="st13" d="M128.37,44.11c-.77-.41-1.69-.62-2.78-.62h-5.66v14.35h3.03v-4.65h2.55c1.1,0,2.04-.2,2.82-.61.78-.41,1.37-.97,1.78-1.7s.62-1.57.62-2.52-.2-1.79-.61-2.52c-.4-.73-.99-1.3-1.75-1.72ZM127.32,49.6c-.19.36-.47.64-.85.85-.38.2-.86.3-1.45.3h-2.06v-4.78h2.05c.59,0,1.07.1,1.46.3.38.2.67.48.86.83.19.36.28.77.28,1.25s-.09.89-.28,1.25ZM123.47,30.89h5.18l1.06,3.27h3.25l-4.95-14.35h-3.91l-4.95,14.35h3.25l1.06-3.27ZM126,23.1h.11l1.76,5.43h-3.64l1.77-5.43ZM138.24,46.92c-.6,0-1.13.17-1.6.51-.46.34-.79.85-.99,1.52h-.11v-1.88h-2.89v10.76h2.98v-6.09c0-.44.1-.83.3-1.16.2-.34.47-.6.81-.79.34-.19.73-.28,1.17-.28.21,0,.43.02.68.05.25.03.44.07.58.11v-2.65c-.13-.03-.28-.06-.46-.08-.17-.02-.33-.03-.48-.03ZM166.3,31.25c0,.71.14,1.29.44,1.75.3.46.72.8,1.26,1.02.54.22,1.17.31,1.89.29.39-.01.72-.05.99-.12.27-.06.48-.12.63-.16l-.47-2.22c-.07.01-.18.03-.32.06-.14.03-.28.04-.42.04-.2,0-.38-.03-.53-.09-.15-.06-.27-.17-.35-.32-.08-.15-.13-.37-.13-.64v-5.21h2.02v-2.24h-2.02v-2.58h-2.98v2.58h-1.47v2.24h1.47v5.6ZM192.89,18.83h-2.76l-1.49,3.19h2.11l2.14-3.19ZM156.94,44.32l-1.41-1.71h-2.54v.1l2.84,3.08h2.22l2.84-3.08v-.1h-2.54l-1.41,1.71ZM161.72,22.02c.44,0,.82-.15,1.14-.44.32-.3.47-.65.47-1.07s-.16-.77-.47-1.06-.69-.44-1.14-.44-.82.15-1.14.44c-.32.3-.48.65-.48,1.07s.16.77.47,1.06c.32.29.69.44,1.14.44ZM163.21,23.41h-2.98v10.76h2.98v-10.76ZM180.33,54.78h-.11l-2.23-7.7h-3.15l3.76,10.76h3.36l3.76-10.76h-3.16l-2.23,7.7ZM141,27.45v6.71h2.89v-6.57c0-.56.15-1.01.46-1.36s.73-.51,1.27-.51c.48,0,.87.15,1.19.45s.48.75.48,1.35v6.65h2.98v-7.24c0-1.17-.31-2.07-.94-2.71-.63-.64-1.44-.96-2.45-.96-.79,0-1.47.19-2.05.56-.58.37-.98.87-1.19,1.48h-.11c-.17-.63-.52-1.12-1.04-1.49-.52-.37-1.15-.55-1.88-.55s-1.35.18-1.88.55c-.52.36-.9.86-1.12,1.49h-.13v-1.9h-2.84v10.76h2.98v-6.46c0-.4.08-.74.23-1.04.15-.3.36-.53.63-.69s.56-.25.89-.25c.49,0,.89.16,1.19.47.3.31.45.73.45,1.26ZM178.16,34.38c.89,0,1.67-.14,2.35-.41.68-.27,1.24-.66,1.67-1.15s.72-1.07.86-1.73l-2.76-.18c-.1.27-.25.5-.45.69s-.43.33-.71.42c-.28.09-.58.14-.91.14-.5,0-.93-.1-1.3-.32-.36-.21-.65-.51-.84-.9-.2-.39-.3-.85-.3-1.38h0s7.33,0,7.33,0v-.82c0-.92-.13-1.72-.39-2.4s-.62-1.25-1.08-1.71c-.46-.45-1-.79-1.61-1.02s-1.28-.34-1.99-.34c-1.06,0-1.97.23-2.76.7-.78.47-1.39,1.12-1.82,1.95-.43.84-.64,1.81-.64,2.91s.21,2.12.64,2.95c.43.83,1.04,1.47,1.84,1.92.8.45,1.75.68,2.85.68ZM176.07,26.64c.2-.35.47-.63.82-.83.35-.21.75-.31,1.2-.31s.82.09,1.14.28c.33.19.59.45.77.78.19.33.28.71.28,1.14h-4.51c.02-.39.11-.74.29-1.06ZM201.62,31.87c-.14.03-.28.04-.42.04-.2,0-.38-.03-.53-.09-.15-.06-.27-.17-.35-.32-.08-.15-.13-.37-.13-.64v-5.21h2.02v-2.24h-2.02v-2.58h-2.98v2.58h-1.47v2.24h1.47v5.6c0,.71.14,1.29.44,1.75.3.46.72.8,1.26,1.02.54.22,1.17.31,1.89.29.39-.01.72-.05.99-.12.27-.06.48-.12.63-.16l-.47-2.22c-.07.01-.18.03-.32.06ZM212.53,24.62c-.46-.45-1-.79-1.61-1.02s-1.28-.34-1.99-.34c-1.06,0-1.97.23-2.76.7-.78.47-1.39,1.12-1.82,1.95-.43.84-.64,1.81-.64,2.91s.21,2.12.64,2.95c.43.83,1.04,1.47,1.84,1.92.8.45,1.75.68,2.85.68.89,0,1.67-.14,2.35-.41.68-.27,1.24-.66,1.67-1.15s.72-1.07.86-1.73l-2.76-.18c-.1.27-.25.5-.45.69s-.43.33-.71.42c-.28.09-.58.14-.91.14-.5,0-.93-.1-1.3-.32-.36-.21-.65-.51-.84-.9-.2-.39-.3-.85-.3-1.38h0s7.33,0,7.33,0v-.82c0-.92-.13-1.72-.39-2.4s-.62-1.25-1.08-1.71ZM206.67,27.7c.02-.39.11-.74.29-1.06.2-.35.47-.63.82-.83.35-.21.75-.31,1.2-.31s.82.09,1.14.28c.33.19.59.45.77.78.19.33.28.71.28,1.14h-4.51ZM222.01,23.28c-.17-.02-.33-.03-.48-.03-.6,0-1.13.17-1.6.51-.46.34-.79.85-.99,1.52h-.11v-1.88h-2.89v10.76h2.98v-6.09c0-.44.1-.83.3-1.16.2-.34.47-.6.81-.79.34-.19.73-.28,1.17-.28.21,0,.43.02.68.05.25.03.44.07.58.11v-2.65c-.13-.03-.28-.06-.46-.08ZM192.79,24.13c-.43-.29-.92-.51-1.46-.65s-1.12-.21-1.72-.21c-.86,0-1.61.13-2.27.39-.65.26-1.18.63-1.59,1.11s-.69,1.05-.83,1.7l2.76.22c.1-.35.31-.65.63-.89.32-.24.74-.35,1.28-.35.51,0,.9.12,1.18.36.28.24.42.59.42,1.03v.04c0,.23-.09.4-.26.52-.17.12-.45.2-.83.26-.38.06-.89.12-1.51.19-.53.05-1.04.14-1.52.27s-.91.31-1.29.56c-.38.25-.68.57-.9.98-.22.41-.33.91-.33,1.51,0,.71.16,1.3.47,1.78s.73.83,1.27,1.07c.54.24,1.15.36,1.84.36.53,0,1-.07,1.41-.21.41-.14.75-.34,1.04-.6s.52-.55.69-.89h.08v1.49h2.83v-7.26c0-.64-.12-1.19-.37-1.65-.25-.46-.58-.84-1.01-1.13ZM191.21,30.32c0,.38-.1.72-.29,1.02s-.46.54-.79.71c-.34.17-.72.26-1.16.26s-.83-.11-1.13-.32c-.3-.21-.44-.52-.44-.93,0-.28.07-.51.22-.7.14-.19.35-.34.61-.45.26-.11.57-.19.92-.24.16-.02.35-.05.55-.08.2-.03.4-.07.6-.1.2-.04.38-.08.54-.13.16-.05.29-.1.38-.16v1.14ZM153.28,34.17h2.98v-8.52h2.14v-2.24h-2.14v-.72c0-.36.09-.65.26-.85.17-.2.48-.31.92-.31.18,0,.35.02.52.05.17.03.31.07.43.1l.53-2.24c-.19-.06-.47-.12-.85-.19s-.8-.1-1.26-.1c-.68,0-1.28.13-1.81.39-.53.26-.95.64-1.26,1.16-.31.51-.46,1.16-.46,1.94v.78h-1.52v2.24h1.52v8.52ZM149.09,48.3c-.46-.45-1-.79-1.61-1.02s-1.28-.34-1.99-.34c-1.06,0-1.97.23-2.76.7-.78.47-1.39,1.12-1.82,1.95-.43.84-.64,1.81-.64,2.91s.21,2.12.64,2.95c.43.83,1.04,1.47,1.84,1.92.8.45,1.75.68,2.85.68.89,0,1.67-.14,2.35-.41.68-.27,1.24-.66,1.67-1.15s.72-1.07.86-1.73l-2.76-.18c-.1.27-.25.5-.45.69s-.43.33-.71.42c-.28.09-.58.14-.91.14-.5,0-.93-.1-1.3-.32-.36-.21-.65-.51-.84-.9-.2-.39-.3-.85-.3-1.38h0s7.33,0,7.33,0v-.82c0-.92-.13-1.72-.39-2.4s-.62-1.25-1.08-1.71ZM143.23,51.37c.02-.39.11-.74.29-1.06.2-.35.47-.63.82-.83.35-.21.75-.31,1.2-.31s.82.09,1.14.28c.33.19.59.45.77.78.19.33.28.71.28,1.14h-4.51ZM158.59,51.59l-1.95-.39c-.5-.11-.85-.25-1.06-.43-.21-.18-.31-.39-.31-.65,0-.32.16-.58.48-.77s.71-.29,1.17-.29c.35,0,.64.06.89.17.25.11.45.27.61.46.15.19.25.4.3.63l2.73-.17c-.13-.99-.59-1.77-1.37-2.35-.78-.57-1.85-.86-3.21-.86-.92,0-1.72.14-2.41.41-.68.27-1.21.66-1.59,1.16-.38.5-.56,1.1-.56,1.79,0,.8.26,1.46.77,1.98.51.52,1.29.88,2.34,1.09l1.86.37c.47.09.81.23,1.04.4.22.17.34.4.34.67,0,.32-.17.59-.49.79s-.74.31-1.26.31-.97-.11-1.31-.34c-.34-.23-.56-.56-.64-.99l-2.94.15c.15,1.03.64,1.84,1.48,2.43.84.6,1.98.89,3.4.89.93,0,1.76-.15,2.48-.44.72-.3,1.28-.71,1.69-1.24.41-.53.62-1.15.62-1.86,0-.78-.26-1.4-.77-1.88-.51-.48-1.29-.82-2.34-1.04ZM171.27,47.63c-.79-.46-1.73-.7-2.82-.7s-2.03.23-2.82.7c-.79.46-1.4,1.11-1.83,1.95-.43.83-.64,1.81-.64,2.92s.21,2.07.64,2.9c.43.83,1.04,1.48,1.83,1.95.79.46,1.73.7,2.82.7s2.03-.23,2.82-.7c.79-.46,1.4-1.11,1.83-1.95.43-.83.64-1.8.64-2.9s-.21-2.08-.64-2.92c-.43-.83-1.04-1.48-1.83-1.95ZM170.45,54.15c-.17.49-.42.88-.75,1.16-.33.28-.75.42-1.24.42s-.92-.14-1.26-.42c-.34-.28-.59-.67-.76-1.16s-.26-1.05-.26-1.67.09-1.18.26-1.67.42-.88.76-1.16c.34-.28.76-.43,1.26-.43s.91.14,1.24.43c.33.28.58.67.75,1.16s.26,1.05.26,1.67-.09,1.18-.26,1.67Z"/>
</svg>