<?xml version="1.0" encoding="UTF-8"?>
<svg id="Layer_1" xmlns="http://www.w3.org/2000/svg" xmlns:xlink="http://www.w3.org/1999/xlink" version="1.1" viewBox="0 0 283.46 283.46">
  <!-- Generator: Adobe Illustrator 30.3.0, SVG Export Plug-In . SVG Version: 2.1.3 Build 182)  -->
  <defs>
    <style>
      .st0 {
        fill: #008d36;
      }

      .st0, .st1, .st2, .st3, .st4, .st5, .st6 {
        stroke-width: .81px;
      }

      .st0, .st1, .st2, .st3, .st4, .st5, .st6, .st7, .st8 {
        stroke: #1d1d1b;
        stroke-miterlimit: 10;
      }

      .st9 {
        fill: #be1622;
      }

      .st1 {
        fill: url(#radial-gradient1);
      }

      .st2 {
        fill: url(#radial-gradient5);
      }

      .st3 {
        fill: url(#radial-gradient4);
      }

      .st4 {
        fill: url(#radial-gradient3);
      }

      .st5 {
        fill: url(#radial-gradient6);
      }

      .st6 {
        fill: url(#radial-gradient2);
      }

      .st10 {
        fill: url(#radial-gradient);
      }

      .st11 {
        fill: #1d1d1b;
      }

      .st12 {
        fill: #fff;
      }

      .st7 {
        fill: none;
      }

      .st7, .st8 {
        stroke-width: 1.08px;
      }

      .st8 {
        fill: #f9b233;
      }

      .st13 {
        fill: #222221;
      }
    </style>
    <radialGradient id="radial-gradient" cx="62.18" cy="497.89" fx="62.18" fy="497.89" r="13.67" gradientTransform="translate(0 -383.35)" gradientUnits="userSpaceOnUse">
      <stop offset=".45" stop-color="#e30613"/>
      <stop offset=".88" stop-color="#be1622"/>
    </radialGradient>
    <radialGradient id="radial-gradient1" cx="97.44" cy="507.53" fx="97.44" fy="507.53" r="10.39" gradientTransform="translate(0 -383.35)" gradientUnits="userSpaceOnUse">
      <stop offset=".23" stop-color="#ffe000"/>
      <stop offset=".88" stop-color="#fab400"/>
    </radialGradient>
    <radialGradient id="radial-gradient2" cx="94.37" cy="534.94" fx="94.37" fy="534.94" r="9.99" xlink:href="#radial-gradient1"/>
    <radialGradient id="radial-gradient3" cx="72.98" cy="550.49" fx="72.98" fy="550.49" r="10.21" xlink:href="#radial-gradient1"/>
    <radialGradient id="radial-gradient4" cx="50.36" cy="547.85" fx="50.36" fy="547.85" r="10.08" xlink:href="#radial-gradient1"/>
    <radialGradient id="radial-gradient5" cx="30.02" cy="533.73" fx="30.02" fy="533.73" r="9.69" xlink:href="#radial-gradient1"/>
    <radialGradient id="radial-gradient6" cx="26.03" cy="505.96" fx="26.03" fy="505.96" r="10.65" xlink:href="#radial-gradient1"/>
  </defs>
  <g>
    <g>
      <path class="st11" d="M61.39,130.38c-2.15,0-3.87-.65-5.17-1.94-.75-.75-1.29-1.72-1.61-2.91h-.54c-2.26,0-4.2-.97-5.49-2.8-1.29-1.94-1.51-4.41-.54-7,.65-1.51,1.51-2.8,2.69-3.66-1.08-3.77-.54-7.32,1.4-9.36,1.08-1.18,2.69-1.83,4.52-1.83,1.08,0,2.15.22,3.12.75.86-1.29,2.48-2.8,5.27-2.48,3.66.43,4.63,3.77,4.95,5.38,3.12.32,5.49,2.04,6.46,4.63,1.29,3.55-.86,6.03-2.04,7,.65.97,1.4,2.37,1.4,3.98,0,1.51-.65,2.91-1.83,3.98-1.4,1.29-3.01,1.94-4.52,1.94-.43,0-.97-.11-1.4-.22-.32.97-.86,1.83-1.51,2.58-1.4,1.29-3.12,1.94-5.17,1.94h0ZM55.14,124.89v.22c.22,1.18.75,2.15,1.51,2.91,1.18,1.18,2.69,1.83,4.74,1.83s3.55-.65,4.74-1.83c.65-.65,1.18-1.51,1.51-2.58l.11-.22.22.11c.54.11.97.22,1.51.22,1.51,0,2.91-.65,4.2-1.83,1.08-.97,1.72-2.26,1.72-3.66,0-1.51-.75-3.01-1.4-3.87l-.11-.22.22-.11c1.29-1.08,3.23-3.23,2.04-6.56-.86-2.48-3.12-4.09-6.13-4.3h-.22v-.22c-.22-1.4-1.08-4.74-4.52-5.17-2.69-.32-4.09,1.18-4.84,2.48l-.11.22-.22-.11c-.86-.54-1.94-.75-3.01-.75-2.04-.11-3.44.54-4.41,1.61-1.94,1.94-2.37,5.49-1.29,9.04v.22l-.22.11c-1.08.75-2.04,2.04-2.69,3.55-.97,2.37-.75,4.74.54,6.56,1.18,1.61,2.91,2.58,5.06,2.58h.75l.32-.22h0Z"/>
      <path class="st12" d="M55.04,124.89v.22c.22,1.18.75,2.15,1.51,2.91,1.18,1.18,2.69,1.83,4.74,1.83s3.55-.65,4.74-1.83c.65-.65,1.18-1.51,1.51-2.58l.11-.22.22.11c.54.11.97.22,1.51.22,1.51,0,2.91-.65,4.2-1.83,1.08-.97,1.72-2.26,1.72-3.66,0-1.51-.75-3.01-1.4-3.87l-.11-.22.22-.11c1.29-1.08,3.23-3.23,2.04-6.56-.86-2.48-3.12-4.09-6.13-4.3h-.22v-.22c-.22-1.4-1.08-4.74-4.52-5.17-2.69-.32-4.09,1.18-4.84,2.48l-.11.22-.22-.11c-.86-.54-1.94-.75-3.01-.75-1.94-.11-3.34.54-4.3,1.61-1.94,1.94-2.37,5.49-1.29,9.04v.22l-.22.11c-1.08.75-2.04,2.04-2.69,3.55-.97,2.37-.75,4.74.54,6.56,1.18,1.61,2.91,2.58,5.06,2.58h.75l.22-.22h0Z"/>
    </g>
    <g>
      <path class="st9" d="M60.53,104.12s.75-4.09,4.41-3.66,3.55,5.49,3.55,5.49c0,0,5.06-.54,6.56,3.55,1.51,4.09-3.01,6.13-3.01,6.13,0,0,4.52,3.98.97,7.21s-6.24.43-6.24.43c0,0,.22,5.49-5.38,5.49s-5.27-5.38-5.27-5.38c0,0-3.98,1.51-6.24-1.72s.32-8.39,2.91-9.04c-1.4-3.34-1.4-7.21.54-9.26s5.92-1.4,7.21.75h0Z"/>
      <path class="st7" d="M60.53,104.12s.75-4.09,4.41-3.66,3.55,5.49,3.55,5.49c0,0,5.06-.54,6.56,3.55,1.51,4.09-3.01,6.13-3.01,6.13,0,0,4.52,3.98.97,7.21s-6.24.43-6.24.43c0,0,.22,5.49-5.38,5.49s-5.27-5.38-5.27-5.38c0,0-3.98,1.51-6.24-1.72s.32-8.39,2.91-9.04c-1.4-3.34-1.4-7.21.54-9.26s5.92-1.4,7.21.75h0Z"/>
      <path class="st10" d="M60.53,104.12s.75-4.09,4.41-3.66,3.55,5.49,3.55,5.49c0,0,5.06-.54,6.56,3.55,1.51,4.09-3.01,6.13-3.01,6.13,0,0,4.52,3.98.97,7.21s-6.24.43-6.24.43c0,0,.22,5.49-5.38,5.49s-5.27-5.38-5.27-5.38c0,0-3.98,1.51-6.24-1.72s.32-8.39,2.91-9.04c-1.4-3.34-1.4-7.21.54-9.26s5.92-1.4,7.21.75h0Z"/>
    </g>
    <path class="st11" d="M99.27,153.84c-1.83,3.98-4.2,7.75-7.32,11.08-6.89,7.32-16.36,10.98-28.2,10.98h-1.4c-12.48-.32-22.49-4.41-29.7-12.27-.75-.86-1.51-1.72-2.26-2.69.54.65,1.18,1.29,1.72,1.94,7.53,7.64,17.65,11.52,30.03,11.52s22.71-3.87,30.35-11.62c2.69-2.69,4.95-5.7,6.78-8.93M18.45,122.74s-2.91,53.06,43.91,54.24h1.51c45.2,0,42.08-53.06,42.08-53.06,0,0,.54,49.4-43.69,49.4s-43.8-50.58-43.8-50.58h0Z"/>
    <path class="st1" d="M86.78,119.62s16.14,3.87,24.64,9.04c-11.52-2.58-24.64-5.7-27.98-5.38,1.08-1.18,3.34-3.66,3.34-3.66h0Z"/>
    <path class="st11" d="M46.43,129.84c4.74,9.36,16.04,12.48,24.97,7.32,2.8-1.61,5.17-4.09,6.89-7.1-.97,3.34-3.12,6.35-6.03,8.5-8.93,6.67-23.25,2.58-25.83-8.72h0Z"/>
    <path class="st11" d="M34.37,128.77c-.54,17.22,17.43,30.24,33.79,26.58,5.38-1.18,10.44-3.66,14.85-7.21-3.87,4.2-8.93,7.21-14.53,8.82-16.9,4.84-37.56-9.79-34.11-28.2h0Z"/>
    <path class="st6" d="M86.03,140.18s13.02,12.59,16.68,22.81c-3.55-5.38-11.08-15.17-16.68-16.9.32-2.69,0-5.92,0-5.92Z"/>
    <path class="st4" d="M69.35,153.2s-.54,15.17,7.21,27.98c-3.01-10.33-4.84-21.85-3.66-26.69-2.04-.75-3.55-1.29-3.55-1.29Z"/>
    <path class="st3" d="M48.79,150.4s-1.51,11.62,1.08,28.2c.86-13.56,1.29-22.17,2.58-26.9-2.15-.75-3.66-1.29-3.66-1.29h0Z"/>
    <path class="st0" d="M49.98,132.64s-2.04,2.8-3.55,9.58c2.48-5.27,3.44-6.24,4.95-8.29-.86-.75-1.4-1.29-1.4-1.29Z"/>
    <path class="st0" d="M60.53,137.38s-.97,3.34,0,10.22c.54-5.81,1.4-7.43,2.15-9.9-1.18-.43-2.15-.32-2.15-.32h0Z"/>
    <path class="st0" d="M68.92,134.9s1.61,2.58,6.46,6.13c-3.44-3.77-3.87-5.27-5.06-7.21-.86.32-1.4,1.08-1.4,1.08h0Z"/>
    <path class="st2" d="M39.22,145.23v-4.95s-10.76,8.72-18.29,20.34c5.27-4.84,13.13-13.24,18.29-15.39h0Z"/>
    <path class="st5" d="M36.96,117.79s-19.26,5.7-25.18,9.58c9.47-1.83,23.89-5.92,28.52-5.6-2.37-2.15-3.34-3.98-3.34-3.98Z"/>
    <path class="st11" d="M63.97,103.8c.11,2.37.54,4.63.22,7l-1.08-.32c.54-2.15.65-4.52.86-6.67h0Z"/>
    <path class="st11" d="M72.15,111.66c-2.15.86-4.2,1.94-6.56,2.48v-1.08c2.15-.11,4.41-.86,6.56-1.4h0Z"/>
    <path class="st11" d="M54.5,107.14c1.94,1.29,3.98,2.37,5.7,3.98l-.86.65c-1.4-1.72-3.23-3.23-4.84-4.63h0Z"/>
    <path class="st11" d="M52.67,120.05c1.61-1.72,2.91-3.55,4.84-5.06l.54.97c-1.94,1.08-3.66,2.69-5.38,4.09h0Z"/>
    <path class="st11" d="M60.09,125.97c-.11-2.37-.32-4.63,0-7l.97.32c-.54,2.04-.65,4.41-.97,6.67h0Z"/>
    <path class="st11" d="M70.32,121.45c-2.04-1.18-4.09-2.15-5.92-3.66l.86-.65c1.4,1.61,3.44,3.01,5.06,4.3h0Z"/>
    <path class="st8" d="M62.03,110.9s.43-1.4,1.61-1.08.97,2.04.97,2.04c0,0,1.72,0,2.04,1.51s-1.29,1.94-1.29,1.94c0,0,1.29,1.51,0,2.48s-2.15-.11-2.15-.11c0,0-.22,1.83-2.04,1.61s-1.51-2.04-1.51-2.04c0,0-1.4.32-2.04-.86s.54-2.8,1.4-2.91c-.32-1.18-.22-2.48.54-3.12s2.15-.22,2.48.54h0Z"/>
    <circle class="st7" cx="62.14" cy="114.46" r="1.4"/>
  </g>
  <g>
    <path class="st13" d="M145,133.98h-3.63l5.54-16.04h4.37l5.53,16.04h-3.63l-4.02-12.37h-.12l-4.03,12.37ZM144.77,127.67h8.58v2.65h-8.58v-2.65Z"/>
    <path class="st13" d="M158.67,133.98v-12.03h3.18v2.12h.14c.25-.7.67-1.26,1.25-1.67s1.28-.61,2.1-.61,1.53.21,2.11.61c.58.41.97.96,1.16,1.66h.12c.25-.69.69-1.24,1.33-1.66.65-.42,1.41-.62,2.29-.62,1.12,0,2.04.36,2.74,1.07.7.71,1.05,1.72,1.05,3.03v8.09h-3.33v-7.43c0-.67-.18-1.17-.53-1.5-.36-.33-.8-.5-1.33-.5-.61,0-1.08.19-1.42.58-.34.38-.51.89-.51,1.52v7.35h-3.23v-7.5c0-.59-.17-1.06-.51-1.41-.34-.35-.78-.52-1.33-.52-.37,0-.7.09-1,.28-.29.19-.53.44-.7.78-.17.33-.26.72-.26,1.16v7.22h-3.34Z"/>
    <path class="st13" d="M185.25,121.95v2.51h-7.42v-2.51h7.42ZM179.52,133.98v-12.9c0-.87.17-1.59.51-2.17.34-.57.81-1,1.41-1.29.6-.29,1.27-.43,2.03-.43.51,0,.98.04,1.41.12s.74.15.95.21l-.59,2.51c-.13-.04-.29-.08-.48-.12-.19-.04-.39-.05-.58-.05-.49,0-.83.11-1.03.34-.19.23-.29.54-.29.95v12.84h-3.33Z"/>
    <path class="st13" d="M188.96,120.4c-.5,0-.92-.16-1.27-.49-.35-.33-.53-.73-.53-1.19s.18-.86.53-1.19c.36-.33.78-.5,1.27-.5s.92.16,1.27.49.53.73.53,1.19-.18.86-.53,1.19-.78.5-1.27.5ZM187.28,133.98v-12.03h3.34v12.03h-3.34Z"/>
    <path class="st13" d="M199.68,121.95v2.51h-7.25v-2.51h7.25ZM194.08,119.06h3.34v11.22c0,.31.05.55.14.72.09.17.23.29.4.36.17.07.37.1.59.1.16,0,.31-.01.47-.04s.28-.05.36-.07l.52,2.48c-.17.05-.4.11-.71.18-.3.07-.67.11-1.1.13-.8.03-1.51-.08-2.11-.32-.6-.25-1.07-.63-1.41-1.14-.33-.52-.5-1.17-.49-1.96v-11.65Z"/>
    <path class="st13" d="M207.33,134.21c-1.24,0-2.3-.25-3.19-.76-.89-.5-1.58-1.22-2.06-2.15-.48-.93-.72-2.02-.72-3.29s.24-2.32.72-3.26,1.16-1.66,2.03-2.19c.88-.52,1.9-.78,3.08-.78.79,0,1.53.13,2.22.38s1.29.63,1.8,1.14c.51.51.92,1.14,1.2,1.91.29.77.43,1.66.43,2.68v.92h-10.16v-2.07h7.02c0-.48-.1-.91-.31-1.28-.21-.37-.5-.66-.87-.87-.37-.21-.79-.32-1.28-.32s-.95.12-1.34.35c-.39.23-.69.54-.91.93-.22.39-.33.82-.34,1.3v1.97c0,.6.11,1.11.33,1.54.22.43.54.77.94,1,.41.23.89.35,1.45.35.37,0,.71-.05,1.02-.16.31-.1.57-.26.79-.47.22-.21.39-.46.5-.77l3.09.2c-.16.74-.48,1.39-.96,1.94-.48.55-1.1.98-1.86,1.28-.76.31-1.64.46-2.63.46Z"/>
    <path class="st13" d="M218.46,134.2c-.77,0-1.45-.13-2.05-.4s-1.07-.67-1.42-1.2c-.35-.53-.52-1.19-.52-1.99,0-.67.12-1.23.37-1.68.25-.45.58-.82,1-1.1.42-.28.91-.49,1.45-.63.54-.14,1.11-.24,1.7-.3.7-.07,1.26-.14,1.69-.21.43-.07.74-.16.93-.29.19-.13.29-.32.29-.58v-.05c0-.5-.16-.88-.47-1.15s-.75-.41-1.32-.41c-.6,0-1.08.13-1.43.4-.36.26-.59.59-.71.99l-3.09-.25c.16-.73.46-1.36.92-1.9.46-.54,1.05-.95,1.78-1.24.73-.29,1.57-.43,2.53-.43.67,0,1.31.08,1.92.23s1.16.4,1.64.73c.48.33.86.75,1.13,1.26.28.51.42,1.13.42,1.84v8.11h-3.16v-1.67h-.09c-.19.38-.45.71-.78.99-.32.28-.71.51-1.17.67s-.98.24-1.57.24ZM219.42,131.9c.49,0,.92-.1,1.3-.29s.67-.46.88-.79.32-.71.32-1.14v-1.28c-.1.07-.25.13-.43.18-.18.06-.38.1-.61.15-.22.04-.45.08-.67.12-.22.03-.43.06-.61.09-.39.06-.73.15-1.03.27-.29.12-.52.29-.68.5-.16.21-.24.47-.24.79,0,.45.17.8.5,1.04.33.24.75.36,1.27.36ZM219.06,120.4l1.66-3.56h3.09l-2.39,3.56h-2.36Z"/>
    <path class="st13" d="M234.23,121.95v2.51h-7.25v-2.51h7.25ZM228.63,119.06h3.34v11.22c0,.31.05.55.14.72.09.17.23.29.4.36.17.07.37.1.59.1.16,0,.31-.01.47-.04s.28-.05.36-.07l.52,2.48c-.17.05-.4.11-.71.18-.3.07-.67.11-1.1.13-.8.03-1.51-.08-2.11-.32-.6-.25-1.07-.63-1.41-1.14-.33-.52-.5-1.17-.49-1.96v-11.65Z"/>
    <path class="st13" d="M241.88,134.21c-1.24,0-2.3-.25-3.19-.76-.89-.5-1.58-1.22-2.06-2.15-.48-.93-.72-2.02-.72-3.29s.24-2.32.72-3.26,1.16-1.66,2.03-2.19c.88-.52,1.9-.78,3.08-.78.79,0,1.53.13,2.22.38s1.29.63,1.8,1.14c.51.51.92,1.14,1.2,1.91.29.77.43,1.66.43,2.68v.92h-10.16v-2.07h7.02c0-.48-.1-.91-.31-1.28-.21-.37-.5-.66-.87-.87-.37-.21-.79-.32-1.28-.32s-.95.12-1.34.35c-.39.23-.69.54-.91.93-.22.39-.33.82-.34,1.3v1.97c0,.6.11,1.11.33,1.54.22.43.54.77.94,1,.41.23.89.35,1.45.35.37,0,.71-.05,1.02-.16.31-.1.57-.26.79-.47.22-.21.39-.46.5-.77l3.09.2c-.16.74-.48,1.39-.96,1.94-.48.55-1.1.98-1.86,1.28-.76.31-1.64.46-2.63.46Z"/>
    <path class="st13" d="M249.58,133.98v-12.03h3.24v2.1h.12c.22-.75.59-1.31,1.1-1.7.52-.38,1.11-.58,1.79-.58.17,0,.35.01.54.03.19.02.36.05.51.09v2.96c-.16-.05-.37-.09-.65-.12-.28-.04-.53-.05-.76-.05-.49,0-.93.11-1.31.32s-.69.51-.91.88c-.22.38-.33.81-.33,1.3v6.81h-3.34Z"/>
    <path class="st13" d="M142.23,160.44v-16.04h6.33c1.22,0,2.25.23,3.11.69s1.51,1.1,1.96,1.92c.45.82.68,1.76.68,2.82s-.23,2-.69,2.82c-.46.81-1.12,1.45-1.99,1.9s-1.92.68-3.15.68h-4.03v-2.72h3.48c.65,0,1.19-.11,1.62-.34s.74-.54.96-.95c.21-.41.32-.87.32-1.4s-.11-1-.32-1.4c-.21-.4-.53-.71-.96-.93-.43-.22-.97-.33-1.63-.33h-2.29v13.27h-3.39Z"/>
    <path class="st13" d="M156.46,160.44v-12.03h3.24v2.1h.12c.22-.75.59-1.31,1.1-1.7.52-.38,1.11-.58,1.79-.58.17,0,.35.01.54.03.19.02.36.05.51.09v2.96c-.16-.05-.37-.09-.65-.13-.28-.04-.53-.05-.76-.05-.49,0-.93.11-1.31.32-.38.21-.69.5-.91.88-.22.38-.33.81-.33,1.3v6.81h-3.34Z"/>
    <path class="st13" d="M170.95,160.68c-1.24,0-2.3-.25-3.19-.76-.89-.5-1.58-1.22-2.06-2.15s-.72-2.02-.72-3.29.24-2.32.72-3.26c.48-.93,1.16-1.66,2.03-2.18.88-.52,1.9-.78,3.08-.78.79,0,1.53.13,2.22.38s1.29.63,1.8,1.14c.51.51.92,1.14,1.2,1.91.29.76.43,1.66.43,2.68v.92h-10.16v-2.07h7.02c0-.48-.1-.91-.31-1.28-.21-.37-.5-.66-.87-.87-.37-.21-.79-.32-1.28-.32s-.95.12-1.34.35c-.39.23-.69.54-.91.93-.22.39-.33.82-.34,1.3v1.97c0,.59.11,1.11.33,1.54.22.43.54.77.94,1,.41.24.89.35,1.45.35.37,0,.71-.05,1.02-.16.31-.1.57-.26.79-.47.22-.21.39-.46.5-.77l3.09.2c-.16.74-.48,1.39-.96,1.94-.48.55-1.1.98-1.86,1.28-.76.31-1.64.46-2.63.46Z"/>
    <path class="st13" d="M188.66,151.84l-3.05.19c-.05-.26-.16-.5-.34-.71-.17-.21-.4-.38-.68-.51-.28-.13-.61-.19-1-.19-.52,0-.95.11-1.31.33-.36.22-.53.5-.53.87,0,.29.12.53.34.73s.62.36,1.18.48l2.18.44c1.17.24,2.04.63,2.62,1.16.58.53.86,1.23.86,2.1,0,.79-.23,1.48-.69,2.08-.46.59-1.09,1.06-1.9,1.39-.8.33-1.72.5-2.77.5-1.59,0-2.86-.33-3.8-1s-1.49-1.57-1.66-2.72l3.28-.17c.1.49.34.85.72,1.11.38.25.87.38,1.46.38s1.06-.11,1.41-.34c.36-.23.54-.52.54-.88,0-.3-.13-.55-.38-.75-.25-.2-.64-.35-1.16-.45l-2.08-.42c-1.17-.23-2.05-.64-2.62-1.22-.57-.58-.86-1.32-.86-2.22,0-.77.21-1.44.63-2,.42-.56,1.01-.99,1.78-1.29s1.66-.45,2.69-.45c1.52,0,2.72.32,3.59.96.87.64,1.38,1.52,1.53,2.62ZM182.04,143.41l1.57,1.91,1.57-1.91h2.84v.11l-3.18,3.45h-2.48l-3.17-3.45v-.11h2.84Z"/>
    <path class="st13" d="M196.48,160.68c-1.22,0-2.27-.26-3.15-.78s-1.57-1.25-2.05-2.18-.72-2.01-.72-3.25.24-2.33.72-3.26c.48-.93,1.16-1.66,2.05-2.18s1.94-.78,3.15-.78,2.27.26,3.15.78c.89.52,1.57,1.25,2.05,2.18.48.93.72,2.02.72,3.26s-.24,2.31-.72,3.25c-.48.93-1.16,1.66-2.05,2.18-.88.52-1.94.78-3.15.78ZM196.49,158.09c.55,0,1.02-.16,1.39-.47.37-.32.65-.75.84-1.3.19-.55.29-1.17.29-1.87s-.1-1.32-.29-1.87-.47-.98-.84-1.3c-.37-.32-.83-.48-1.39-.48s-1.03.16-1.41.48c-.38.32-.66.75-.85,1.3-.19.55-.29,1.17-.29,1.87s.09,1.32.29,1.87c.19.55.47.98.85,1.3.38.32.85.47,1.41.47Z"/>
    <path class="st13" d="M215.79,148.41l-4.21,12.03h-3.76l-4.21-12.03h3.52l2.5,8.61h.13l2.49-8.61h3.53Z"/>
  </g>
</svg>