<?xml version="1.0" encoding="utf-8"?>
<!-- Generator: Adobe Illustrator 27.2.0, SVG Export Plug-In . SVG Version: 6.00 Build 0)  -->
<svg version="1.1" id="a" xmlns="http://www.w3.org/2000/svg" xmlns:xlink="http://www.w3.org/1999/xlink" x="0px" y="0px"
	 viewBox="0 0 258 83.1" style="enable-background:new 0 0 258 83.1;" xml:space="preserve">
<style type="text/css">
	.st0{fill:#FFFFFF;}
	.st1{fill:#FFFFFF;}
	.st2{fill:#BE1622;}
	.st3{fill:none;stroke:#FFFFFF;stroke-miterlimit:10;}
	.st4{fill:url(#SVGID_1_);}
	
		.st5{fill:url(#SVGID_00000147939057052771601860000016052061646366639801_);stroke:#FFFFFF;stroke-width:0.75;stroke-miterlimit:10;}
	
		.st6{fill:url(#SVGID_00000031183833728126418600000004378724788985890947_);stroke:#FFFFFF;stroke-width:0.75;stroke-miterlimit:10;}
	
		.st7{fill:url(#SVGID_00000042011440822979725990000014639812794788119469_);stroke:#FFFFFF;stroke-width:0.75;stroke-miterlimit:10;}
	
		.st8{fill:url(#SVGID_00000032628490883780339580000016518137578955870878_);stroke:#FFFFFF;stroke-width:0.75;stroke-miterlimit:10;}
	.st9{fill:#008D36;stroke:#FFFFFF;stroke-width:0.75;stroke-miterlimit:10;}
	
		.st10{fill:url(#SVGID_00000103946057489987241440000003071078997542681249_);stroke:#FFFFFF;stroke-width:0.75;stroke-miterlimit:10;}
	
		.st11{fill:url(#SVGID_00000160165809359282777340000009092314506592570299_);stroke:#FFFFFF;stroke-width:0.75;stroke-miterlimit:10;}
	.st12{fill:#F9B233;stroke:#FFFFFF;stroke-miterlimit:10;}
</style>
<g>
	<g>
		<path class="st0" d="M47.9,33.4c-2,0-3.6-0.6-4.8-1.8c-0.7-0.7-1.2-1.6-1.5-2.7c-0.2,0-0.3,0-0.5,0c-2.1,0-3.9-0.9-5.1-2.6
			c-1.2-1.8-1.4-4.1-0.5-6.5c0.6-1.4,1.4-2.6,2.5-3.4c-1-3.5-0.5-6.8,1.3-8.7c1-1.1,2.5-1.7,4.2-1.7c1,0,2,0.2,2.9,0.7
			c0.8-1.2,2.3-2.6,4.9-2.3c3.4,0.4,4.3,3.5,4.6,5c2.9,0.3,5.1,1.9,6,4.3c1.2,3.3-0.8,5.6-1.9,6.5c0.6,0.9,1.3,2.2,1.3,3.7
			c0,1.4-0.6,2.7-1.7,3.7c-1.3,1.2-2.8,1.8-4.2,1.8c-0.4,0-0.9-0.1-1.3-0.2c-0.3,0.9-0.8,1.7-1.4,2.4C51.4,32.8,49.8,33.4,47.9,33.4
			L47.9,33.4z M42.1,28.3l0,0.2c0.2,1.1,0.7,2,1.4,2.7c1.1,1.1,2.5,1.7,4.4,1.7s3.3-0.6,4.4-1.7c0.6-0.6,1.1-1.4,1.4-2.4l0.1-0.2
			l0.2,0.1c0.5,0.1,0.9,0.2,1.4,0.2c1.4,0,2.7-0.6,3.9-1.7c1-0.9,1.6-2.1,1.6-3.4c0-1.4-0.7-2.8-1.3-3.6l-0.1-0.2l0.2-0.1
			c1.2-1,3-3,1.9-6.1c-0.8-2.3-2.9-3.8-5.7-4l-0.2,0l0-0.2c-0.2-1.3-1-4.4-4.2-4.8c-2.5-0.3-3.8,1.1-4.5,2.3l-0.1,0.2l-0.2-0.1
			c-0.8-0.5-1.8-0.7-2.8-0.7C42,6.4,40.7,7,39.8,8c-1.8,1.8-2.2,5.1-1.2,8.4l0,0.2l-0.2,0.1c-1,0.7-1.9,1.9-2.5,3.3
			c-0.9,2.2-0.7,4.4,0.5,6.1c1.1,1.5,2.7,2.4,4.7,2.4c0.2,0,0.5,0,0.7,0L42.1,28.3L42.1,28.3z"/>
		<path class="st1" d="M42,28.3l0,0.2c0.2,1.1,0.7,2,1.4,2.7c1.1,1.1,2.5,1.7,4.4,1.7s3.3-0.6,4.4-1.7c0.6-0.6,1.1-1.4,1.4-2.4
			l0.1-0.2l0.2,0.1c0.5,0.1,0.9,0.2,1.4,0.2c1.4,0,2.7-0.6,3.9-1.7c1-0.9,1.6-2.1,1.6-3.4c0-1.4-0.7-2.8-1.3-3.6l-0.1-0.2l0.2-0.1
			c1.2-1,3-3,1.9-6.1c-0.8-2.3-2.9-3.8-5.7-4l-0.2,0l0-0.2c-0.2-1.3-1-4.4-4.2-4.8c-2.5-0.3-3.8,1.1-4.5,2.3l-0.1,0.2l-0.2-0.1
			c-0.8-0.5-1.8-0.7-2.8-0.7C42,6.4,40.7,7,39.8,8c-1.8,1.8-2.2,5.1-1.2,8.4l0,0.2l-0.2,0.1c-1,0.7-1.9,1.9-2.5,3.3
			c-0.9,2.2-0.7,4.4,0.5,6.1c1.1,1.5,2.7,2.4,4.7,2.4c0.2,0,0.5,0,0.7,0L42,28.3L42,28.3z"/>
	</g>
	<g>
		<path class="st2" d="M47.1,9c0,0,0.7-3.8,4.1-3.4s3.3,5.1,3.3,5.1s4.7-0.5,6.1,3.3s-2.8,5.7-2.8,5.7s4.2,3.7,0.9,6.7
			s-5.8,0.4-5.8,0.4s0.2,5.1-5,5.1S43,26.9,43,26.9s-3.7,1.4-5.8-1.6s0.3-7.8,2.7-8.4c-1.3-3.1-1.3-6.7,0.5-8.6S45.9,7,47.1,9
			L47.1,9z"/>
		<path class="st3" d="M47.1,9c0,0,0.7-3.8,4.1-3.4s3.3,5.1,3.3,5.1s4.7-0.5,6.1,3.3s-2.8,5.7-2.8,5.7s4.2,3.7,0.9,6.7
			s-5.8,0.4-5.8,0.4s0.2,5.1-5,5.1S43,26.9,43,26.9s-3.7,1.4-5.8-1.6s0.3-7.8,2.7-8.4c-1.3-3.1-1.3-6.7,0.5-8.6S45.9,7,47.1,9
			L47.1,9z"/>
		
			<radialGradient id="SVGID_1_" cx="48.6342" cy="-118.5611" r="12.7052" gradientTransform="matrix(1 0 0 -1 0 -99.8898)" gradientUnits="userSpaceOnUse">
			<stop  offset="0.45" style="stop-color:#E30613"/>
			<stop  offset="0.88" style="stop-color:#BE1622"/>
		</radialGradient>
		<path class="st4" d="M47.1,9c0,0,0.7-3.8,4.1-3.4s3.3,5.1,3.3,5.1s4.7-0.5,6.1,3.3s-2.8,5.7-2.8,5.7s4.2,3.7,0.9,6.7
			s-5.8,0.4-5.8,0.4s0.2,5.1-5,5.1S43,26.9,43,26.9s-3.7,1.4-5.8-1.6s0.3-7.8,2.7-8.4c-1.3-3.1-1.3-6.7,0.5-8.6S45.9,7,47.1,9
			L47.1,9z"/>
	</g>
	<path class="st0" d="M83.1,55.2c-1.7,3.7-3.9,7.2-6.8,10.3c-6.4,6.8-15.2,10.2-26.2,10.2c-0.4,0-0.9,0-1.3,0
		c-11.6-0.3-20.9-4.1-27.6-11.4c-0.7-0.8-1.4-1.6-2.1-2.5c0.5,0.6,1.1,1.2,1.6,1.8c7,7.1,16.4,10.7,27.9,10.7s21.1-3.6,28.2-10.8
		C79.3,61,81.4,58.2,83.1,55.2 M8,26.3c0,0-2.7,49.3,40.8,50.4c0.5,0,0.9,0,1.4,0c42,0,39.1-49.3,39.1-49.3s0.5,45.9-40.6,45.9
		S8,26.3,8,26.3L8,26.3z"/>
	
		<radialGradient id="SVGID_00000039113832178423426180000007387383106784670132_" cx="81.4" cy="-127.525" r="9.6568" gradientTransform="matrix(1 0 0 -1 0 -99.8898)" gradientUnits="userSpaceOnUse">
		<stop  offset="0.23" style="stop-color:#FFE000"/>
		<stop  offset="0.88" style="stop-color:#FAB400"/>
	</radialGradient>
	
		<path style="fill:url(#SVGID_00000039113832178423426180000007387383106784670132_);stroke:#FFFFFF;stroke-width:0.75;stroke-miterlimit:10;" d="
		M71.5,23.4c0,0,15,3.6,22.9,8.4c-10.7-2.4-22.9-5.3-26-5C69.4,25.7,71.5,23.4,71.5,23.4L71.5,23.4z"/>
	<path class="st0" d="M34,32.9c4.4,8.7,14.9,11.6,23.2,6.8c2.6-1.5,4.8-3.8,6.4-6.6C62.7,36.2,60.7,39,58,41
		C49.7,47.2,36.4,43.4,34,32.9L34,32.9L34,32.9z"/>
	<path class="st0" d="M22.8,31.9C22.3,47.9,39,60,54.2,56.6c5-1.1,9.7-3.4,13.8-6.7c-3.6,3.9-8.3,6.7-13.5,8.2
		C38.8,62.6,19.6,49,22.8,31.9C22.8,31.9,22.8,31.9,22.8,31.9z"/>
	
		<radialGradient id="SVGID_00000147184082063620774560000006371461230704592772_" cx="78.555" cy="-152.995" r="9.2744" gradientTransform="matrix(1 0 0 -1 0 -99.8898)" gradientUnits="userSpaceOnUse">
		<stop  offset="0.23" style="stop-color:#FFE000"/>
		<stop  offset="0.88" style="stop-color:#FAB400"/>
	</radialGradient>
	
		<path style="fill:url(#SVGID_00000147184082063620774560000006371461230704592772_);stroke:#FFFFFF;stroke-width:0.75;stroke-miterlimit:10;" d="
		M70.8,42.5c0,0,12.1,11.7,15.5,21.2C83,58.7,76,49.6,70.8,48C71.1,45.5,70.8,42.5,70.8,42.5z"/>
	
		<radialGradient id="SVGID_00000154413639497522788020000006106838428707904431_" cx="58.6709" cy="-167.44" r="9.4875" gradientTransform="matrix(1 0 0 -1 0 -99.8898)" gradientUnits="userSpaceOnUse">
		<stop  offset="0.23" style="stop-color:#FFE000"/>
		<stop  offset="0.88" style="stop-color:#FAB400"/>
	</radialGradient>
	
		<path style="fill:url(#SVGID_00000154413639497522788020000006106838428707904431_);stroke:#FFFFFF;stroke-width:0.75;stroke-miterlimit:10;" d="
		M55.3,54.6c0,0-0.5,14.1,6.7,26c-2.8-9.6-4.5-20.3-3.4-24.8C56.7,55.1,55.3,54.6,55.3,54.6z"/>
	
		<radialGradient id="SVGID_00000041288107194064546370000011136367835918469273_" cx="37.65" cy="-164.99" r="9.372" gradientTransform="matrix(1 0 0 -1 0 -99.8898)" gradientUnits="userSpaceOnUse">
		<stop  offset="0.23" style="stop-color:#FFE000"/>
		<stop  offset="0.88" style="stop-color:#FAB400"/>
	</radialGradient>
	
		<path style="fill:url(#SVGID_00000041288107194064546370000011136367835918469273_);stroke:#FFFFFF;stroke-width:0.75;stroke-miterlimit:10;" d="
		M36.2,52c0,0-1.4,10.8,1,26.2c0.8-12.6,1.2-20.6,2.4-25C37.6,52.5,36.2,52,36.2,52L36.2,52z"/>
	<path class="st9" d="M37.3,35.5c0,0-1.9,2.6-3.3,8.9c2.3-4.9,3.2-5.8,4.6-7.7C37.8,36,37.3,35.5,37.3,35.5z"/>
	<path class="st9" d="M47.1,39.9c0,0-0.9,3.1,0,9.5c0.5-5.4,1.3-6.9,2-9.2C48,39.8,47.1,39.9,47.1,39.9L47.1,39.9z"/>
	<path class="st9" d="M54.9,37.6c0,0,1.5,2.4,6,5.7c-3.2-3.5-3.6-4.9-4.7-6.7C55.4,36.9,54.9,37.6,54.9,37.6L54.9,37.6z"/>
	
		<radialGradient id="SVGID_00000067952722252850545600000013509174989440477868_" cx="18.75" cy="-151.865" r="9.0049" gradientTransform="matrix(1 0 0 -1 0 -99.8898)" gradientUnits="userSpaceOnUse">
		<stop  offset="0.23" style="stop-color:#FFE000"/>
		<stop  offset="0.88" style="stop-color:#FAB400"/>
	</radialGradient>
	
		<path style="fill:url(#SVGID_00000067952722252850545600000013509174989440477868_);stroke:#FFFFFF;stroke-width:0.75;stroke-miterlimit:10;" d="
		M27.3,47.2v-4.6c0,0-10,8.1-17,18.9C15.2,57,22.5,49.2,27.3,47.2L27.3,47.2z"/>
	
		<radialGradient id="SVGID_00000013187764149414734260000007905029849861152136_" cx="15.06" cy="-126.065" r="9.8891" gradientTransform="matrix(1 0 0 -1 0 -99.8898)" gradientUnits="userSpaceOnUse">
		<stop  offset="0.23" style="stop-color:#FFE000"/>
		<stop  offset="0.88" style="stop-color:#FAB400"/>
	</radialGradient>
	
		<path style="fill:url(#SVGID_00000013187764149414734260000007905029849861152136_);stroke:#FFFFFF;stroke-width:0.75;stroke-miterlimit:10;" d="
		M25.2,21.7c0,0-17.9,5.3-23.4,8.9c8.8-1.7,22.2-5.5,26.5-5.2C26.1,23.4,25.2,21.7,25.2,21.7z"/>
	<path class="st0" d="M50.3,8.7c0.1,2.2,0.5,4.3,0.2,6.5l-1-0.3C50,12.9,50.1,10.7,50.3,8.7L50.3,8.7z"/>
	<path class="st0" d="M57.9,16c-2,0.8-3.9,1.8-6.1,2.3l0-1C53.8,17.2,55.9,16.5,57.9,16C57.9,16,57.9,16,57.9,16z"/>
	<path class="st0" d="M41.5,11.8c1.8,1.2,3.7,2.2,5.3,3.7L46,16.1C44.7,14.5,43,13.1,41.5,11.8L41.5,11.8z"/>
	<path class="st0" d="M39.8,23.8c1.5-1.6,2.7-3.3,4.5-4.7l0.5,0.9C43,21,41.4,22.5,39.8,23.8L39.8,23.8z"/>
	<path class="st0" d="M46.7,29.3c-0.1-2.2-0.3-4.3,0-6.5l0.9,0.3C47.1,25,47,27.2,46.7,29.3L46.7,29.3z"/>
	<path class="st0" d="M56.2,25.1c-1.9-1.1-3.8-2-5.5-3.4l0.8-0.6C52.8,22.6,54.7,23.9,56.2,25.1L56.2,25.1z"/>
	<path class="st12" d="M48.5,15.3c0,0,0.4-1.3,1.5-1s0.9,1.9,0.9,1.9s1.6,0,1.9,1.4s-1.2,1.8-1.2,1.8s1.2,1.4,0,2.3s-2-0.1-2-0.1
		s-0.2,1.7-1.9,1.5s-1.4-1.9-1.4-1.9s-1.3,0.3-1.9-0.8s0.5-2.6,1.3-2.7c-0.3-1.1-0.2-2.3,0.5-2.9S48.2,14.6,48.5,15.3L48.5,15.3z"/>
	<circle class="st3" cx="48.6" cy="18.6" r="1.3"/>
</g>
<g>
	<path class="st0" d="M108.3,38.4h1.7l3.5,16.2h-2.2l-0.6-3.1h-3.2l-0.6,3.1h-2.1L108.3,38.4L108.3,38.4z M110.3,49.7l-0.5-2.6
		c-0.3-1.8-0.6-3.6-0.8-5.6c-0.1,1-0.2,1.9-0.4,2.9c-0.2,1-0.3,2.1-0.5,3.2l-0.4,2.1C107.8,49.7,110.3,49.7,110.3,49.7z"/>
	<path class="st0" d="M116.5,38.4h1.9l1.4,6.6c0.2,0.8,0.3,1.6,0.5,2.5c0.1,0.8,0.3,1.7,0.4,2.6c0-0.1,0-0.2,0-0.3s0-0.1,0-0.1
		l0.3-1.9l0.3-1.8l0.2-1.2l1.3-6.5h1.9l1.5,16.2h-2.1l-0.4-5.5c0-0.3,0-0.5,0-0.7s0-0.4,0-0.5l-0.1-2.2l-0.1-2c0,0,0,0,0-0.1
		s0-0.1,0-0.2l-0.1,0.3c-0.1,0.4-0.1,0.7-0.2,1s-0.1,0.5-0.1,0.7l-0.3,1.5l-0.1,0.6l-1.4,7.1H120l-1.3-6.1c-0.2-0.8-0.3-1.6-0.5-2.4
		s-0.3-1.7-0.4-2.6l-0.6,11.1h-2.1L116.5,38.4L116.5,38.4z"/>
	<path class="st0" d="M129.1,38.4h5.8v1.8h-3.6v5.1h3.3v1.8h-3.3v7.4h-2.2L129.1,38.4L129.1,38.4z"/>
	<path class="st0" d="M137.6,38.4h2.2v16.2h-2.2V38.4z"/>
	<path class="st0" d="M142.1,38.4h7.1v1.9h-2.4v14.3h-2.1V40.3h-2.5V38.4z"/>
	<path class="st0" d="M151.5,38.4h5.8v1.8h-3.6v5.1h3.2v1.8h-3.2v5.5h3.6v1.8h-5.8V38.4L151.5,38.4z"/>
	<path class="st0" d="M162.6,38.4h1.7l3.5,16.2h-2.2l-0.6-3.1h-3.2l-0.6,3.1h-2.1L162.6,38.4L162.6,38.4z M164.7,49.7l-0.5-2.6
		c-0.3-1.8-0.6-3.6-0.8-5.6c-0.1,1-0.2,1.9-0.4,2.9c-0.1,1-0.3,2.1-0.5,3.2l-0.4,2.1H164.7L164.7,49.7z M164.6,33.8l1.1,1.3
		l-2.6,1.8l-0.8-0.9L164.6,33.8z"/>
	<path class="st0" d="M168.5,38.4h7.1v1.9h-2.4v14.3H171V40.3h-2.5V38.4z"/>
	<path class="st0" d="M177.9,38.4h5.8v1.8h-3.6v5.1h3.2v1.8h-3.2v5.5h3.6v1.8h-5.8V38.4L177.9,38.4z"/>
	<path class="st0" d="M186.7,38.4h2.9c1.2,0,2.1,0.3,2.6,0.9c0.7,0.7,1.1,1.9,1.1,3.4c0,1.2-0.2,2.1-0.6,2.8s-0.9,1.1-1.7,1.3l3,7.9
		h-2.2l-3-7.9v7.9h-2.2L186.7,38.4L186.7,38.4z M188.9,45.6c0.8,0,1.4-0.2,1.8-0.6c0.4-0.4,0.5-1.1,0.5-2c0-0.5,0-0.9-0.1-1.3
		s-0.2-0.6-0.4-0.9s-0.4-0.4-0.6-0.5s-0.5-0.2-0.9-0.2h-0.4L188.9,45.6L188.9,45.6z"/>
	<path class="st0" d="M202.4,38.4h2.9c1.4,0,2.4,0.4,3,1.1c0.6,0.7,0.9,1.8,0.9,3.4c0,2.1-0.6,3.5-1.9,4.2c-0.6,0.3-1.6,0.4-2.8,0.4
		v7.2h-2.2L202.4,38.4L202.4,38.4z M204.5,45.5c0.9,0,1.5-0.2,1.9-0.5c0.4-0.4,0.5-1,0.5-2s-0.2-1.7-0.5-2.1s-0.9-0.7-1.6-0.7h-0.3
		V45.5L204.5,45.5z"/>
	<path class="st0" d="M211.9,38.4h2.9c1.2,0,2.1,0.3,2.6,0.9c0.7,0.7,1.1,1.9,1.1,3.4c0,1.2-0.2,2.1-0.6,2.8s-0.9,1.1-1.7,1.3l3,7.9
		h-2.2l-3-7.9v7.9h-2.2L211.9,38.4L211.9,38.4z M214.1,45.6c0.8,0,1.4-0.2,1.8-0.6c0.4-0.4,0.5-1.1,0.5-2c0-0.5,0-0.9-0.1-1.3
		s-0.2-0.6-0.4-0.9s-0.4-0.4-0.6-0.5s-0.5-0.2-0.9-0.2h-0.4L214.1,45.6L214.1,45.6z"/>
	<path class="st0" d="M222.1,38.4h5.8v1.8h-3.6v5.1h3.2v1.8h-3.2v5.5h3.6v1.8h-5.8V38.4L222.1,38.4z"/>
	<path class="st0" d="M236.3,38.7v2.1c-0.7-0.5-1.3-0.7-1.8-0.7c-0.6,0-1,0.2-1.4,0.6c-0.4,0.4-0.5,0.9-0.5,1.5
		c0,0.6,0.1,1.1,0.4,1.5c0.1,0.2,0.4,0.5,0.6,0.8c0.3,0.3,0.7,0.8,1.2,1.2c0.9,0.9,1.5,1.7,1.8,2.3c0.3,0.6,0.5,1.4,0.5,2.3
		c0,1.2-0.4,2.3-1.1,3.1c-0.7,0.8-1.6,1.2-2.7,1.2c-0.9,0-1.7-0.2-2.4-0.8v-2.2c0.8,0.6,1.5,0.9,2.1,0.9c0.6,0,1.1-0.2,1.4-0.6
		s0.5-0.9,0.5-1.6c0-0.6-0.1-1.1-0.4-1.6c-0.1-0.2-0.3-0.5-0.6-0.8s-0.5-0.6-0.9-1c-0.6-0.5-1-1-1.4-1.4s-0.6-0.8-0.8-1.1
		c-0.3-0.6-0.5-1.4-0.5-2.3c0-1.3,0.3-2.3,1-3c0.7-0.8,1.6-1.1,2.7-1.1C234.9,38.2,235.6,38.4,236.3,38.7L236.3,38.7z M233.9,36.9
		l-2.7-2.2l0.9-1.1l1.8,1.5l1.8-1.5l0.9,1L233.9,36.9L233.9,36.9z"/>
	<path class="st0" d="M248.1,46.9c0,2.9-0.3,4.9-0.9,6.1c-0.6,1.2-1.7,1.8-3.2,1.8c-1.6,0-2.7-0.6-3.3-1.9c-0.6-1.3-0.9-3.5-0.9-6.7
		c0-2.9,0.3-4.9,0.9-6.1c0.6-1.2,1.7-1.8,3.2-1.8c1.4,0,2.4,0.5,3,1.4c0.4,0.6,0.8,1.5,0.9,2.6C248,43.3,248.1,44.8,248.1,46.9
		L248.1,46.9z M245.8,47.1c0-2.8-0.1-4.7-0.4-5.6c-0.2-0.9-0.8-1.4-1.5-1.4s-1.3,0.4-1.6,1.3c-0.2,0.9-0.4,2.6-0.4,5.1
		c0,2.4,0.1,4,0.4,4.9c0.3,0.9,0.8,1.3,1.5,1.3s1.2-0.4,1.5-1.2C245.7,50.8,245.8,49.3,245.8,47.1L245.8,47.1z"/>
	<path class="st0" d="M250,38.4h2.1l1,6l0.2,1.1l0.4,2.4c0.1,0.4,0.1,0.8,0.1,1.1s0.1,0.6,0.1,0.9l0.1,0.8c0-0.2,0-0.3,0.1-0.4
		s0-0.2,0-0.3l0.3-1.9l0.4-2.5c0-0.2,0.1-0.4,0.1-0.6s0.1-0.4,0.1-0.5l1.1-6h2l-3.2,16.2h-1.7L250,38.4L250,38.4z"/>
</g>
</svg>
